<?xml version="1.0" encoding="utf-8"?>
<!-- Generator: Adobe Illustrator 19.1.0, SVG Export Plug-In . SVG Version: 6.00 Build 0)  -->
<svg version="1.1" id="Layer_1" xmlns="http://www.w3.org/2000/svg" xmlns:xlink="http://www.w3.org/1999/xlink" x="0px" y="0px"
	 viewBox="0 0 251.3 74.6" style="enable-background:new 0 0 251.3 74.6;" xml:space="preserve">
<style type="text/css">
	.st0{fill:#FFFFFF;}
</style>
<g id="XMLID_135_">
	<path id="XMLID_136_" class="st0" d="M26.6,67.1c-1.4,1.5-3,2.5-4.6,3.1c-1.6,0.6-3.2,0.8-4.9,0.8c-2.3-0.1-4.7-0.6-7-1.5
		c-2.3-0.9-4.4-2-6.2-3.1c-0.3-0.2-0.7-0.4-1.1-0.7C2.4,65.3,2,65,1.5,64.5c-0.4-0.4-0.8-1-1.1-1.6C0.1,62.3,0,61.6,0,60.8
		c0-1.3,0.4-2.4,1.1-3c0.7-0.7,1.4-1.1,2.2-1.4c0.8-0.3,1.6-0.4,2.3-0.3c0.7,0,1.1,0.1,1.2,0.1c0.5,0,1,0.1,1.5,0.1
		c0.5,0.1,1,0.1,1.7,0.2c3.4,0.5,6.4,1.1,9,1.8c2.6,0.7,4.8,1.3,6.9,1.9l0-0.8l-0.1-0.1l-0.1-0.5l0,0.1l0-0.2l-0.1-0.1l-0.3-0.8
		l-0.2-0.5c-0.3-0.9-0.9-1.8-1.6-2.9c-0.7-1.1-1.7-2.4-2.9-3.8c-1.1-1.6-2.3-3.3-3.7-5c-1.4-1.7-2.8-3.6-4.1-5.6
		c-1.3-2-2.4-4.2-3.3-6.6c-0.9-2.4-1.3-5-1.3-8c0.1-2.3,0.5-4.5,1.3-6.8c0.8-2.2,2-4.2,3.4-6c1.5-1.7,3.2-3.1,5.3-4.2
		C20.2,7.5,22.5,7,25,7c1.4,0,2.8,0.3,4.1,0.8c1.3,0.5,2.5,1.2,3.6,2.2c1.1,0.9,1.9,2,2.5,3.1c0.6,1.2,0.9,2.4,0.9,3.8
		c0,1.2-0.2,2.2-0.6,2.9c-0.4,0.7-0.6,1.4-0.7,2.1c0.4-0.7,0.8-1.5,1.2-2.3c0.4-0.8,0.8-1.5,1.1-2.2c0.4-0.7,0.6-1.3,0.9-1.8
		c0.2-0.5,0.4-0.9,0.4-1c0.2,0,0.4,0.1,0.7,0.2c0.3,0.1,0.6,0.3,0.9,0.4l1.1,0.6c-0.4,0.7-1,1.7-1.9,2.9c-0.9,1.2-1.8,2.4-2.7,3.5
		c0,0.1-0.1,0.2-0.2,0.2l0.1,0.1l-0.1,0.1l-0.1-0.1l0,0.2L36,22.7c0,0.1,0,0.1,0.1,0.2l-0.6,1.2c-0.1,0.2-0.2,0.4-0.3,0.6
		c-0.1,0.2-0.2,0.4-0.3,0.5l-0.1,0.1l-0.1,0c0,0.1,0,0.1,0.1,0.1l-0.1-0.1l0,0.1l0,0.1l-0.1,0.2l0.1,0l-0.1,0l-0.2,0.3l0.1,0
		c-0.1,0.2-0.2,0.4-0.4,0.5L34,26.6l0.1,0.1L34,26.6l0,0.1l0,0.1l-0.1-0.1L33.7,27l-0.1,0.1l0-0.1l-0.2,0.1L33,27.5l0.1-0.1L33,27.2
		l0,0.1l-0.1-0.2L32.8,27l0.1,0l0.2-0.2L33,26.7c0,0.1,0,0,0-0.1c0-0.1,0.1-0.2,0.2-0.2l0.2-0.4l0.1,0.1l-0.1,0l0.1-0.1
		c-0.1,0-0.1,0,0,0c0,0,0,0,0,0c0-0.1,0-0.1,0.1-0.2l0.2-0.2l0.1,0l-0.1-0.1c-0.3,0.3-0.5,0.5-0.5,0.6c0,0.1-0.1,0.1-0.4,0.1
		c-0.4,0-1-0.1-1.8-0.4c-0.1,0.4-0.2,0.6-0.3,0.6l0.1-0.2L31,26l0-0.3c-1,0-1.9-0.3-2.7-0.7c-0.7-0.4-1.1-0.8-1.1-0.9l0-0.1
		c0.4-1.2,0.9-2.6,1.6-4.2c0.6-1.6,1-2.8,1-3.7c0-0.9-0.5-1.6-1.4-2.3c-1-0.7-2-1.1-3-1.4c-0.5,0-1,0-1.4,0c-0.5,0-0.9,0.1-1.2,0.2
		l0.1-0.1l-0.4,0.1l0-0.1l0.6-0.1l-0.5-0.1c0,0.1,0,0.1-0.1,0c-0.1-0.1-0.2,0-0.3,0.1l-0.1,0l0.1,0l-0.2,0.1l0,0.2l0.3-0.1
		c-0.3,0.3-0.7,0.5-1.2,0.6c-0.5,0.1-0.9,0.3-1.3,0.4c0-0.1,0-0.1-0.1-0.1c-0.1,0.1-0.3,0.2-0.4,0.2c-0.1,0-0.2,0.1-0.2,0.1l0.1,0
		c-0.4,0.1-1,0.4-1.6,1c-0.6,0.5-1,0.9-1.1,1.1l0-0.1l-0.1,0l0,0.2l0,0.1c-0.6,0.6-1.2,1.4-1.7,2.3c-0.5,0.9-0.9,1.9-1.2,3
		c-0.3,1.1-0.5,2.2-0.7,3.3c-0.2,1.1-0.3,2.2-0.3,3.3c0,0.2,0,0.5,0,0.7c0,0.2,0,0.5,0,0.7l0.1,0l0,0.6l0,0.1l0,0.1l0.1-0.1l0,0.4
		l0.2,0.3l0,0.3c0.4,1.6,1,3.2,1.8,4.7c0.8,1.5,1.6,3,2.4,4.4c0.2,0.4,0.6,1,1.1,1.8c0.5,0.8,1,1.6,1.5,2.3c0.5,0.8,1,1.4,1.4,2
		c0.4,0.6,0.7,0.8,0.7,0.8l0.1,0l0.3,0.4l-0.1,0c0.1,0,0.1,0.1,0.2,0.2c0.1,0.1,0.1,0.2,0.3,0.2l0.4,0.6l0.2,0.3l1.2,1.5l0.2,0.3
		c0.4,0.5,0.8,1,1.1,1.5c0.3,0.5,0.7,1.1,1,1.6l0.1,0.2l0.4,0.6l-0.1,0l0.1,0.2l0.1,0.1l0.1,0.2l0.5,1.2l0.4,0.9
		c0,0.1,0.1,0.3,0.2,0.6l0,0.1l0,0.1l0-0.1l0.1,0.7l0.2,0.5c0.1,0.2,0.1,0.5,0.1,0.7c0,0.2,0,0.5,0,0.7l0,0.6c1,0.3,1.7,0.5,2.2,0.6
		c0.5,0.1,0.7,0.5,0.7,1.2c0,1.3-0.3,2.5-0.7,3.6c-0.5,1.1-0.7,1.6-0.9,1.6c-0.5,0-1.1-0.1-1.7-0.4C27.7,67.5,27.1,67.2,26.6,67.1
		L26.6,67.1z M7.2,60.7c-0.3-0.1-0.6-0.1-0.8-0.1c-0.2,0-0.5,0-0.7,0c-0.9,0-1.3,0.2-1.3,0.6c0.1,0.1,0.1,0.1,0.1,0.2
		c0,0.1,0.1,0.1,0.1,0.2c0.3,0,0.6,0,0.8-0.1c0.2-0.1,0.5-0.1,0.8-0.1c0.2,0,0.5,0,0.6,0.1c0.2,0,0.4,0.1,0.6,0.1l0.4,0.1
		c0.1,0,0.1,0,0.2,0.1c0.1,0,0.1,0,0.1-0.1l0.3,0.1l0.1,0l0.3,0l0.5,0.1l0.4,0.1l0-0.1l0.7,0.2l0.4,0.1l0.6,0l-0.5,0.1l0.1,0
		l-0.5,0.4l0.1,0.1l0.2,0.1l-0.4,0l-0.6-0.1c-0.3,0-0.6,0-0.9-0.1c-0.3-0.1-0.6-0.1-0.9-0.1l-0.3,0l0-0.1l-1.5,0l-0.6,0l0.1-0.1
		l-0.2,0l0.4-0.1l-0.3-0.1L5.4,62l-0.1,0.2l-0.1,0.1l0.2,0c-0.1,0-0.1,0-0.1,0.1c1.6,1.7,3.7,3.1,6.1,4.1c2.5,1.1,4.8,1.6,6.9,1.7
		c1.4,0,2.6-0.1,3.6-0.4c1-0.3,1.8-0.8,2.7-1.6c-1.3-0.5-2.7-1-4.2-1.6c-1.5-0.6-3-1.2-4.5-1.7c-1.5-0.6-3-1-4.5-1.4
		C9.9,61.1,8.5,60.8,7.2,60.7z M5.5,62.2l0.4-0.1l-0.3-0.1C5.5,62,5.5,62,5.4,62l-0.1,0.2l-0.1,0.1L5.5,62.2L5.5,62.2z M5.4,62.4
		L5.4,62.4l0.2-0.1L5.4,62.4z M6.4,62L6.4,62L6,62l0.1,0.3L6.4,62L6.4,62z M6.4,62.1L6.4,62.1L6,62l0.1,0.3l0.1-0.1L6.4,62.1z
		 M9.4,62.3l0.1-0.2L9.2,62l-0.1,0.2L9.4,62.3z M9.4,62.1l-0.3,0.1l-0.1,0l0.4,0.1L9.4,62.1z M10.8,62.8l-0.2-0.1
		c-0.1,0-0.1,0-0.1-0.1l0.5-0.4l-0.1,0l0.5-0.1l1,0.2l-0.6,0.1l0.1,0.1l-0.4,0.1l-0.6,0l0.4,0l0,0.2l0.4,0l0.1-0.1
		c0.1,0,0.1,0,0.2,0.1l0.3,0.1l0,0.1L11.8,63l-0.2,0.1c-0.1,0-0.1,0-0.2-0.1c-0.1,0-0.1,0-0.1-0.1l-0.2-0.1l0.1,0.2L10.8,62.8
		L10.8,62.8z M11.7,62.4l0.4-0.1l1.4,0.4l0.5,0.1l0.1,0.1l0.1,0l0.1,0l0.8,0.3l0.6,0.2l0.1,0.1l0.1-0.1l1.1,0.3
		c0.5,0.2,1,0.4,1.6,0.6c0.6,0.2,1,0.4,1.1,0.5l-0.3,0l-0.1-0.1l-0.3,0l-0.2,0l-0.6,0l0.2-0.1l-0.3-0.1c-0.1,0.1-0.2,0.2-0.3,0.1
		c-0.1,0-0.2-0.1-0.3-0.1l-0.9-0.3l0-0.5L16,64l-0.3,0.1l-0.6-0.3l0.1,0.1l0.3,0l0.2,0l0.4-0.3l-0.7-0.1l-0.4,0l-0.2,0.1
		c-0.2,0-0.3,0-0.4,0.1L14,63.5l0.2-0.2l-0.5-0.1l-0.4-0.4l-0.1,0.5l0.1,0.1l0.1,0.1l-0.3-0.1l0.1,0c-0.1,0-0.1,0-0.1,0
		c0,0,0,0-0.1,0c0,0.1,0,0.1-0.1,0c-0.1,0-0.1,0-0.2,0c-0.1-0.1-0.4-0.2-0.8-0.2l0-0.1c-0.1,0-0.1,0-0.1,0c0,0-0.1,0-0.1,0
		c-0.1,0-0.2-0.1-0.5-0.2l-0.1-0.2l0.2,0.1c0,0.1,0,0.1,0.1,0.1l0.2,0.1l0.2-0.1l0.3-0.1l0-0.1l-0.3-0.1c-0.1-0.1-0.1-0.1-0.2-0.1
		l0,0.1l-0.5,0l0-0.2l-0.4,0l0.6,0L11.7,62.4L11.7,62.4z M12.8,62.7L12.8,62.7L12.8,62.7L12.8,62.7z M13,31.8c0,0.2,0,0.4,0.1,0.6
		l0.1,0L13,31.8z M13,31.8c0,0.2,0,0.4,0.1,0.6l0.1,0L13,31.8z M13.4,33.9c0-0.1,0-0.2,0-0.3c0-0.1,0-0.2,0-0.3l-0.2-0.4
		C13.2,33.1,13.3,33.4,13.4,33.9z M13.3,33.3l-0.2-0.4c0.1,0.2,0.1,0.5,0.3,1c0-0.1,0-0.2,0-0.3C13.3,33.5,13.3,33.4,13.3,33.3z
		 M14,63.6l-0.4,0l-0.3-0.2c-0.1,0-0.1,0-0.1-0.1l0.1-0.5l0.4,0.4l0.5,0.1L14,63.6L14,63.6z M15,37.4l-0.3-0.7L14.6,37l-0.1-0.3
		c0,0.1,0,0,0,0c0-0.1,0-0.2-0.1-0.3c-0.1-0.1-0.1-0.2-0.1-0.4L14.3,36L14,35.7c0.2,0.4,0.4,0.8,0.6,1.2c0.2,0.3,0.4,0.7,0.6,1.1
		c0-0.1,0-0.2-0.1-0.2L15,37.4z M15.2,37.9c0-0.1,0-0.2-0.1-0.2L15,37.4l-0.3-0.7L14.6,37l-0.1-0.3c0,0.1,0,0,0,0
		c0-0.1,0-0.2-0.1-0.3c-0.1-0.1-0.1-0.2-0.1-0.4L14.3,36L14,35.7c0.2,0.4,0.4,0.8,0.6,1.2C14.8,37.2,15,37.5,15.2,37.9z M15.1,63.8
		l0,0.2l-0.9-0.1l0.2-0.2c0.1-0.1,0.2-0.1,0.4-0.1l0.2,0l0.2-0.1l0.9,0.1l-0.4,0.2l-0.2,0.1L15.1,63.8L15.1,63.8L15.1,63.8z
		 M14.9,63.2L14.9,63.2C14.9,63.2,14.9,63.2,14.9,63.2C14.9,63.3,14.9,63.3,14.9,63.2z M16.6,64.2L16.6,64.2l-0.3,0.5L16,64.3
		l-0.1-0.2l0.6-0.3L16.6,64.2z M17.7,41.7l-0.3-0.4l0.1-0.1l-0.3-0.4L17,41L17.7,41.7L17.7,41.7z M17.5,41.3l-0.3-0.4L17,41l0.5,0.8
		l0.1-0.1L17.5,41.3L17.5,41.3z M18.3,14.1L18.3,14.1l-0.5,0.4c0.1-0.1,0.1-0.2,0.2-0.2C18.1,14.3,18.2,14.3,18.3,14.1z M18.2,14.2
		L18.2,14.2c0,0-0.1,0.1-0.2,0.1c-0.1,0-0.1,0.1-0.2,0.2L18.2,14.2z M18.5,42.8l-0.3-0.6l-0.4-0.5l0.3,0.6l0.2,0.2L18.5,42.8z
		 M18.5,42.8l-0.3-0.3l-0.2-0.2l-0.3-0.6l0.3,0.4l0.2,0.2L18.5,42.8z M18.2,64.7l0.2,0.1L18,64.7L18.2,64.7z M19.6,64.9L19.6,64.9
		l0.3,0.1l0.4,0.4l-0.6-0.1c-0.1,0-0.2,0-0.3-0.1l-0.2,0.1l-0.9-0.5l0.6,0l0.2,0l0.3,0l0.1,0.1L19.6,64.9z M19.2,13.8l0.2-0.1
		c0.2,0,0.3-0.1,0.3-0.2l0.4,0l-0.3-0.3c0,0.1-0.1,0.1-0.2,0.1c-0.1,0-0.2,0.1-0.4,0.2L19.2,13.8L19.2,13.8L19.2,13.8z M19.2,13.6
		L19.2,13.6c0.1-0.2,0.3-0.3,0.4-0.3c0.1,0,0.2,0,0.2-0.1l0.3,0.3l-0.4,0c0,0.1-0.1,0.2-0.3,0.2l-0.3,0.1L19.2,13.6L19.2,13.6z
		 M26.9,56.5c0.6,1.1,1,2.6,1.1,4.4c0.1,0,0.2,0,0.4,0.1l-0.1-0.1l0.1,0c0-0.2,0-0.6-0.1-1c-0.1-0.4-0.1-0.8-0.3-1l0.1,0
		c-0.1-0.1-0.1-0.3-0.3-0.6c-0.1-0.3-0.3-0.7-0.4-1.2c-0.2-0.5-0.4-0.9-0.7-1.4c-0.3-0.5-0.5-1-0.8-1.4l0.2,0.1L26,54.2l0-0.1l0-0.1
		l0,0.1c-0.1,0-0.3-0.2-0.5-0.6c-0.2-0.4-0.4-0.7-0.5-0.8l0-0.1c-0.2-0.2-0.3-0.4-0.4-0.5c-0.1-0.2-0.2-0.4-0.4-0.7
		c-0.2-0.3-0.5-0.7-0.8-1.2c-0.4-0.5-1-1.2-1.8-2.1c0.2,0.2,0.5,0.7,0.9,1.3c0.4,0.6,0.8,1.2,1.2,1.9c0.4,0.6,0.9,1.4,1.5,2.4
		C25.7,54.5,26.2,55.4,26.9,56.5z M22.2,12.8l0.5-0.1l-0.3,0.3c-0.1,0-0.2,0-0.3,0.1L22,13l-0.2,0l0.1-0.2L22.2,12.8z M22.6,12.5
		l0.6-0.1l-0.5-0.1l-0.2,0c-0.1,0-0.1,0-0.2,0.1l-0.1,0l0.1,0l-0.2,0.1l0,0.2l0.3-0.1L22.6,12.5L22.6,12.5z M23.3,12.2L23.3,12.2
		l0.2,0.2l0.2-0.1c0.1,0,0.2,0,0.2,0c0,0,0,0,0.1,0L23.3,12.2z M23.5,12.3L23.5,12.3l0.2,0c0.1,0,0.2,0,0.2,0c0,0,0,0,0.1,0l-0.6,0
		L23.5,12.3L23.5,12.3z M23.4,50.1L23.4,50.1l0.2,0.1l0-0.1L23.4,50.1z M24.3,51.4c-0.1-0.1-0.1-0.1-0.1-0.2L24.3,51.4L24.3,51.4z
		 M24.4,51.4c0-0.1,0-0.1-0.1-0.1c-0.1,0-0.1-0.1-0.1-0.1C24.4,51.2,24.4,51.3,24.4,51.4z M25.9,53.8L26,54L25.9,53.8z M26,53.6
		L26,53.6l0.2,0.3l0.3,0.1L26,53.6L26,53.6z M26.1,53.7l0.1,0.2l0.3,0.1l-0.4-0.5L26.1,53.7L26.1,53.7z M26.2,54L26.2,54L26.2,54
		C26.1,53.9,26.1,54,26.2,54z M27,55.7c-0.2-0.3-0.3-0.5-0.4-0.5L27,55.7z M27.7,57.4l0,0.2C27.7,57.6,27.8,57.5,27.7,57.4
		L27.7,57.4z M27.9,58.2l0-0.2L27.9,58.2L27.8,58C27.8,58,27.8,58.1,27.9,58.2z M28.5,58.6L28.5,58.6l0.2,0.1l0.1,0.4l-0.1,0
		L28.5,58.6z M30.8,26.5l-0.1,0.3l-0.5,0.4l0.3-0.9c0-0.1,0-0.2,0.1-0.4l0-0.1l0-0.2c0.1,0.1,0.2,0.1,0.4,0.1l0,0.1L30.9,26
		L30.8,26.5z M33,27.5L33,27.5c-0.1,0.1-0.2,0.1-0.2,0l0,0.1l0-0.1l0,0.1c-0.1,0-0.1,0-0.1-0.1l0,0.1l-0.1-0.2l0.1,0.1
		c0.1,0,0.1,0,0.1-0.1l0,0.1c-0.1-0.1-0.1-0.1-0.1-0.2L33,27.5L33,27.5z M33,27.4l0.1,0.2L33,27.4l-0.3-0.1l0.1-0.2l0.1,0.1l0.1-0.1
		L33,27.4L33,27.4z M33.5,27.1L33.5,27.1L33.5,27.1L33.5,27.1L33.5,27.1z M33.9,26.4l-0.1-0.2L33.9,26.4L33.9,26.4z M33.8,26.3
		L33.8,26.3L33.8,26.3L33.8,26.3z M35.1,24.1L35.1,24.1L35.1,24.1L35,23.9c0,0.1,0,0.1-0.1,0.2L35.1,24.1L35.1,24.1z M35,23.9
		c0,0.1,0,0.1-0.1,0.2l0.2,0.1l0.1-0.1l-0.1,0L35,23.9z M35.1,24.3L35.1,24.3l0,0.2L35.1,24.3L35.1,24.3z M35.2,24.4l-0.1-0.2
		L35.2,24.4L35.2,24.4L35.2,24.4z M36.4,22.3L36.4,22.3L36.4,22.3L36.4,22.3z"/>
	<path id="XMLID_195_" class="st0" d="M54.8,27.2c1.2,0.3,1.7,0.9,1.7,1.6c0,0.6-0.1,1.2-0.3,2.1s-0.5,1.9-0.9,3.2
		c-0.4,1.3-0.9,3-1.6,5c-0.7,2-1.5,4.5-2.4,7.4c-1.1,3.3-2.6,7.1-4.6,11.4c-0.1,0.1-0.1,0.3-0.2,0.7c-0.1,0.3-0.3,0.7-0.5,1.1
		c-0.2,0.4-0.5,0.7-0.9,1c-0.4,0.3-0.8,0.4-1.4,0.4l-0.3,0c0,0.1,0,0.2-0.1,0.2l-0.1-0.2c-0.1,0-0.2,0-0.4,0c-0.1,0-0.2,0-0.4,0
		c-0.6,0-0.8-0.2-0.8-0.5c0-0.2,0-0.3,0.1-0.5l0.1,0c0.1-0.4,0.2-0.8,0.3-1.2c0.1-0.3,0.1-0.6,0.2-0.8c0.1-0.2,0.1-0.4,0.1-0.5
		c0.1-0.1,0.1-0.2,0.1-0.4c0.3-1.3,0.5-2.6,0.6-4c0.1-1.4,0.2-2.8,0.2-4.2c-0.1-0.6-0.2-1.1-0.2-1.7c0-0.6-0.1-1.2-0.1-1.7l0.1-0.4
		c0-0.2,0-0.4-0.1-0.4l0-0.3c-0.1,0-0.1-0.1,0-0.2c0-0.1,0-0.2,0-0.3l-0.1-0.6l0-0.3l-0.2-1.3l0.1,0L42.8,42c-0.1-0.5-0.1-1-0.1-1.5
		c0-0.5,0-1,0-1.5l0-0.5l0-0.3c0-0.1,0-0.1,0,0c0,0,0,0,0,0l0.1-0.2l0-0.4l-0.1,0.5c-0.8,2.1-1.7,4.6-2.7,7.5
		c-1,2.9-2.1,5.8-3.3,8.9c-0.1,0.2-0.2,0.4-0.3,0.8c-0.1,0.3-0.2,0.7-0.4,1c-0.2,0.3-0.5,0.7-0.9,1c-0.4,0.3-1,0.6-1.8,0.7l-0.5-0.1
		l-0.4,0c-0.2-0.1-0.3-0.5-0.4-1.2c-0.1-0.7-0.2-1.7-0.3-2.8c-0.1-1.1-0.1-2.4-0.1-3.8c0-1.4,0-2.7,0-4.1c0.1-2.5,0.2-4.7,0.4-6.9
		c0.2-2.1,0.5-4,0.7-5.7c0.3-1.7,0.5-3,0.7-4c0.2-1,0.4-1.7,0.5-1.9c0-0.2,0.1-0.4,0.2-0.5c0.3-0.4,0.7-0.5,1.4-0.5
		c1,0,1.7,0.2,2,0.6c0.4,0.4,0.5,0.8,0.5,1.1c0,0.6-0.1,1.3-0.3,2.2c-0.2,0.9-0.4,2-0.7,3.5c-0.3,1.5-0.5,3.3-0.8,5.6
		c-0.2,2.3-0.4,5.1-0.5,8.5c0.9-1.8,1.7-3.6,2.5-5.4c0.7-1.8,1.5-3.4,2.2-4.8l0-0.2l0.2-0.5l0,0.1l0.1-0.2l-0.1,0c0-0.1,0-0.1,0-0.1
		c0,0,0,0,0-0.1l0.4-0.8l0.3-0.6c0,0.1,0.1-0.1,0.2-0.5l-0.1,0l0.1,0l0.2-0.4l0.2-0.4l-0.1,0c0.2-0.4,0.4-0.7,0.6-1.1
		c0.2-0.4,0.4-0.7,0.5-0.9l-0.1,0.2l-0.1,0.2l0.1,0.5l0-0.1l0,0.2l0.1,0.1l0.1-0.2l0.1-0.4l-0.1,0.1c0.2-0.2,0.4-0.4,0.4-0.5
		l0.1-0.3l0.3-0.7c0.3-0.5,0.5-0.8,0.7-0.8l-0.2,0l0.2-0.2c0.1-0.1,0.2-0.1,0.3-0.1c0.1,0,0.2,0.1,0.4,0.3l0.1-0.1l0.2-0.1
		c0.3,0,0.5,0.2,0.4,0.5l-0.2,0.2c-0.1,0.1-0.2,0.3-0.2,0.5l0,0.3c0,0.1,0,0.1,0.1,0.1c0,0.1,0,0.1-0.1,0.1c-0.1,0-0.1,0.1-0.1,0.2
		c0,0.1,0,0.1,0,0.1c0,0,0,0.1,0,0.2c0,0.1,0,0.1-0.1,0.1c-0.1,0-0.1,0.1-0.1,0.2c0,0.1,0,0.2,0.1,0.4c0.1,0.1,0.1,0.2,0.1,0.4
		l-0.1,0.1l0,1.2c0,0.1,0,0.1,0,0.1c0,0,0,0.1,0,0.1c0,0.1,0,0.1,0,0.2c0,0.1,0,0.1,0,0.2l0,0.5l0,0.7L45.1,37c0,0.1,0,0.1,0.1,0.1
		c0.1,0,0.1,0.1,0.1,0.1l0.1,1.6c0.1,1.4,0.2,2.8,0.4,4.4c0.1,1.6,0.3,3.3,0.4,5.2c1.3-4,2.3-7.3,3.1-10.1c0.8-2.7,1.5-5,2-6.6
		c0.5-1.7,1-2.9,1.4-3.6c0.4-0.7,0.9-1.1,1.4-1.1C54.3,27.1,54.6,27.2,54.8,27.2z M32.1,54.9c0,0.1,0,0.1,0.1,0.2L32.1,54.9z
		 M43.1,39.3l-0.2-0.2l0,0.3l0,0.2l0.1-0.1L43.1,39.3L43.1,39.3z M43.1,39.2C43.2,39.3,43.2,39.3,43.1,39.2L43.1,39.2z M43.3,39.3
		L43.3,39.3C43.2,39.3,43.2,39.4,43.3,39.3L43.3,39.3z M43.2,37.7l0.1,0.5C43.3,38,43.3,37.8,43.2,37.7z M43.5,36.2
		C43.4,36.2,43.4,36.2,43.5,36.2c-0.1,0.1-0.1,0.1-0.2,0.1l0.1,0.1L43.5,36.2z M43.4,39.1L43.4,39.1C43.3,39.2,43.3,39.2,43.4,39.1
		L43.4,39.1z M43.3,36.9l0,0.2L43.3,36.9L43.3,36.9z M43.4,35.9L43.4,35.9l0-0.2L43.4,35.9z M43.8,34.7L43.8,34.7
		c0,0.2-0.1,0.2-0.2,0.3c-0.1,0.1-0.1,0.2,0,0.3l-0.1,0.2l0,1.3l0,1.3l0.2-0.5l0-0.9l0.1-1.4L43.8,34.7z M43.9,34.6
		C43.9,34.5,43.9,34.5,43.9,34.6c0.1-0.1,0.1-0.1,0.1-0.2l0-0.2L43.9,34.6z"/>
	<path id="XMLID_208_" class="st0" d="M69.8,48.4c0,0.1,0,0.1,0,0.2c0,0.1,0,0.1,0,0.2c0-0.1-0.1,0-0.3,0.2c0,0.1,0,0.1,0,0.2
		c0,0.1,0,0.1,0,0.2c-0.1,0.1-0.1,0.2-0.2,0.2c-0.1,0-0.1,0.1-0.2,0.1l0,0.5l0,0.2l-0.2,0l-0.3,1l-0.3,0.2l0,0.3l-0.3,0.4L68,52.6
		c-0.1,0.1-0.1,0.1-0.2,0c-0.1,0-0.1,0-0.1,0l0,0.2l0,0.1l-0.2,0.3c-0.1,0.2-0.3,0.5-0.7,1.1c-0.4,0.5-0.9,1.1-1.5,1.8
		c-0.6,0.7-1.3,1.3-2,1.8c-0.7,0.6-1.5,0.9-2.2,1.1l0-0.1c-0.1,0.1-0.1,0.1-0.2,0.1c-0.1,0-0.1,0-0.2,0.1l0.1,0
		c-0.2,0.1-0.4,0.2-0.5,0.2l-0.1,0c-0.1,0-0.2,0-0.2,0c0,0-0.1,0-0.1,0c-0.2,0-0.4,0-0.6-0.1c-0.1,0-0.2-0.1-0.4-0.1l-0.3,0l0.1-0.1
		c-0.1,0-0.2,0-0.3-0.1c-0.1,0-0.1,0-0.2,0L58.3,59l-0.1,0l0.1,0.2c-0.3,0-0.6-0.1-0.8-0.3l0,0.1l-0.1,0c-0.2-0.2-0.4-0.3-0.4-0.5
		c-0.1-0.1-0.1-0.2-0.3-0.4l0,0.1c0.1,0.1,0.1,0-0.1-0.1c-0.2-0.2-0.4-0.4-0.5-0.7c-0.9-1.5-1.5-2.9-1.8-4.3
		c-0.3-1.4-0.4-2.8-0.4-4.4c0.1-3.9,0.7-7.3,1.7-10.2c1-2.9,2.2-5.3,3.4-7.1c1.2-1.9,2.4-3.3,3.5-4.2c1.1-0.9,1.7-1.3,1.9-1.3
		c0.3,0,0.5,0.1,0.6,0.2c0.2,0,0.5,0.1,1.1,0.3c0.5,0.2,1,0.7,1.6,1.3c0.5,0.7,1,1.6,1.4,2.7c0.4,1.1,0.6,2.6,0.5,4.5
		c0,1-0.3,2.1-0.8,3.3c-0.5,1.2-1.2,2.2-2,3.3c-0.8,1-1.7,1.9-2.8,2.7c-1,0.8-2,1.3-3,1.5l0.1,0c-0.5,0.2-0.9,0.4-1.1,0.4l-0.1,0.1
		l-0.2,0l0,0.1l-0.1-0.1L59,46.5l-0.2,0.1l0-0.1l-0.2,0.1l-0.2-0.1l0.1,0.1c-0.2,0-0.3,0.2-0.5,0.5c-0.1,0.4-0.2,0.8-0.3,1.3
		c-0.1,0.5-0.1,1-0.1,1.5c0,0.5,0,0.9,0,1.1c0,0.4,0,0.8,0.1,1.4c0.1,0.6,0.2,1.2,0.4,1.8c0.2,0.6,0.4,1.1,0.7,1.6
		c0.3,0.4,0.6,0.7,1,0.7c0.9,0,1.9-0.3,2.8-0.9c1-0.7,1.8-1.3,2.5-2l0.8-0.8l0.5-0.4l0.2-0.4l0.2-0.2l0.2-0.4l0.3-0.4l0.1-0.3
		c0.1-0.3,0.3-0.6,0.4-0.9c0.2-0.3,0.3-0.6,0.4-0.8l-0.1,0.2l0,0.2l0.1,0.4l0.1-0.1l0.3-0.5l0-0.2l-0.3-0.2l0.1-0.2
		c0.1-0.2,0.1-0.3,0.2-0.3l0,0.2l0-0.1l0.1-0.2l0,0.1l0.1-0.2l0,0.4l-0.1-0.1c-0.1,0-0.1,0.1-0.1,0.2l0,0.1l0-0.1
		c0.1,0,0.1,0.1,0.1,0.2l0.1-0.1l-0.1,0.3l-0.1,0l0,0.2l0.2-0.5l0.3-0.2l0.1-0.4c0.1-0.2,0.3-0.4,0.4-0.5l0.2-0.2l-0.1,0l0.1-0.2
		l0.2-0.1c0.4,0,0.5,0.1,0.5,0.4c0,0.1-0.1,0.2-0.1,0.3S69.9,48.2,69.8,48.4z M59.8,40.2c-0.2,0.7-0.4,1.4-0.6,2.1
		c-0.2,0.7-0.4,1.5-0.7,2.4l0.1,0.1l0-0.2l0.6-0.4c1.6-0.9,3-2.2,4.1-3.9c1.1-1.7,1.7-3.7,1.8-6c0-1.3-0.2-2.4-0.7-3.2
		c-0.6,0.7-1.3,1.7-2.1,3.1C61.6,35.7,60.8,37.7,59.8,40.2z"/>
	<path id="XMLID_211_" class="st0" d="M86.2,45.2c0.1-0.1,0.3,0,0.4,0.1c0.2,0.1,0.2,0.2,0.2,0.3c0,0.1,0,0.1-0.1,0.1
		c-0.1,0-0.1,0.1-0.2,0.2l0,0.2c0,0.1,0,0.1,0.1,0.1c0,0.1,0,0.1-0.1,0.1c-0.1,0-0.1,0-0.1,0.1c-0.1,0-0.1,0,0,0.1
		c0.1,0.1,0.1,0.1,0,0.2c0,0.1,0,0.1-0.1,0.1c-0.1,0-0.1,0-0.1,0.1c-0.1,0.1-0.1,0.2,0,0.3c0.1,0.1,0.1,0.1,0,0.2l-0.1,0.1l0,0.2
		L86,48.2c0,0.1,0,0.1-0.1,0.1c-0.1,0-0.1,0-0.1,0.1c0,0.1,0,0.1,0.1,0.2l-0.1,0.3l-0.1,0.4l0,0.1c-0.1,0.1-0.2,0.1-0.3,0.1
		c0,0.1,0,0.1,0.1,0.1c0.1,0,0.1,0.1,0.1,0.1l-0.1,0.3l-0.2,0.6c-0.4,1.2-0.9,2.6-1.5,4.1c-0.2,0.4-0.4,0.7-0.6,1.1
		c-0.2,0.4-0.5,0.8-0.8,1.3c-0.2,0.2-0.4,0.5-0.5,0.8c-0.2,0.3-0.6,0.5-1.3,0.8c-0.2,0.2-0.3,0.3-0.5,0.4l0,0.1
		c-0.3,0.1-0.7,0.1-1.2,0c0-0.1,0-0.1,0.1,0c0.1,0,0,0-0.1,0l-0.2,0c-0.1-0.1-0.1-0.2-0.1-0.3c0-0.1,0-0.2,0-0.3
		c-0.4-0.3-0.7-0.6-0.9-0.9l-0.3-1.1c-0.1-0.3-0.2-0.6-0.2-1c0-0.4,0-0.7,0-1c-0.4,0.7-1,1.5-1.5,2.4c-0.6,0.9-1.4,1.6-2.4,2
		c-0.4,0.4-0.9,0.5-1.6,0.5l0.3,0l-0.1-0.1l0.2,0c0.1,0,0.2-0.1,0.4-0.2l0.1,0.1l0.3-0.2c0.1,0,0.1,0,0.1,0c0,0,0,0,0.1,0l-0.4,0
		l-0.1,0.1l0.1-0.1l-0.4,0l0.1,0.1L72.2,59c0-0.1-0.1-0.1-0.3-0.1l-0.2,0l0,0.1l-0.2,0l-0.1,0l-0.1,0.1l0.1,0.1
		c0,0.1,0.1,0.1,0.3,0.1l-0.2,0c-0.2-0.1-0.5-0.3-0.7-0.4c-0.2-0.2-0.4-0.3-0.7-0.4l0-0.1l-0.1,0c-0.6-0.4-1-0.9-1.3-1.5
		c-0.3-0.6-0.4-1.1-0.5-1.6c-0.3-1.6-0.5-3-0.4-4.2c0.1-2.6,0.4-5.1,1-7.5c0.6-2.4,1.4-4.6,2.5-6.5c1.1-2,2.1-3.7,3.2-5.1
		c1-1.4,2-2.5,2.9-3.3c0.9-0.8,1.5-1.2,1.9-1.3c0.2-0.1,0.5-0.2,0.7-0.2c0.5,0,0.9,0.4,1.4,1.2c0.4,0.7,0.5,1.3,0.5,1.7
		c0,0.4-0.1,0.6-0.4,0.8c-0.3,0.3-0.7,0.6-1.2,1c-0.5,0.4-1,1-1.7,1.8c-0.7,0.8-1.4,1.8-2.2,3.1c-0.8,1.3-1.7,3-2.6,5.2
		c-0.3,0.7-0.6,1.6-0.9,2.6c-0.3,1-0.6,2-0.8,3.1c-0.2,1.1-0.4,2.2-0.5,3.3c-0.1,1.1-0.1,2.3,0,3.4c0,0.7,0.2,1.1,0.3,1.2
		c0.2,0.1,0.3,0.2,0.3,0.1c0.3-0.2,0.7-0.5,1.1-1c0.4-0.5,0.8-1,1.1-1.4c0.7-1,1.3-2.1,1.9-3.1c0.6-1,1.1-2,1.6-2.9l0-0.1
		c0.1-0.4,0.1-0.7,0.2-1.1c0.1-0.4,0.1-0.7,0.2-1.1c0.4-1.7,0.8-3.3,1.3-4.8c0.5-1.5,0.9-2.9,1.3-4.1c0.4-1.2,0.8-2.2,1.2-2.9
		c0.4-0.8,0.6-1.2,0.8-1.4c0.1-0.2,0.2-0.3,0.5-0.4c0.2-0.1,0.4-0.1,0.6,0c0.2,0,0.6,0.2,1.1,0.5c1.1,0.9,1.6,1.5,1.4,1.9
		c-0.1,0.3-0.3,0.7-0.4,1.1c-0.2,0.5-0.4,1.1-0.7,1.8c-0.3,0.8-0.6,1.7-1,2.8c-0.4,1.1-0.8,2.5-1.3,4.2c-0.3,1.3-0.8,2.8-1.3,4.5
		c-0.5,1.7-1,3.5-1.3,5.3c0,0.2,0,0.5-0.1,0.7c0,0.2-0.1,0.4-0.1,0.7c0.5-0.7,1-1.5,1.4-2.3c0.4-0.8,0.8-1.5,1.2-2.2l0-0.1l0.2-0.3
		l0.1-0.3l0-0.1l0.2-0.4c0-0.1,0-0.1,0-0.1c0,0,0-0.1,0-0.1l0.1-0.1l0.1-0.2l0.1,0l0.1-0.3l-0.1,0c0.1-0.2,0.3-0.5,0.4-0.7
		c0.1-0.2,0.3-0.5,0.4-0.6l0,0.1l-0.1,0l0,0.1l0,0.1l0.2-0.1c0.1-0.1,0.1-0.1,0-0.1c0,0,0-0.1,0-0.1l-0.1-0.1L85,47
		c0.1-0.1,0.1-0.2,0.1-0.2c0,0,0,0,0,0l0.4-0.4l0-0.2l0.2-0.2l0.1-0.3c0.1-0.1,0.2-0.2,0.3-0.4C86.1,45.4,86.2,45.3,86.2,45.2
		L86.2,45.2L86.2,45.2z"/>
	<path id="XMLID_213_" class="st0" d="M70.1,22.6c-0.2-0.1-0.4-0.2-0.5-0.3c-0.2-0.1-0.4-0.2-0.5-0.3l0.1,0.1l0.5-0.1l-0.1,0l0.2,0
		l-0.1-0.1l0.2,0.1l0.2,0c0.1,0,0.3,0.1,0.5,0.2c0.2,0.1,0.4,0.2,0.5,0.2l-0.1,0l0.1,0c0.5,0,1,0.1,1.6,0.2c0.5,0.1,1,0.2,1.5,0.3
		l-0.1,0c0.1,0,0.1,0,0.1,0c0,0,0,0,0.1,0L74,23l0.2,0c-1.3-0.3-2.6-0.6-3.7-1c-1.1-0.4-1.7-0.8-1.9-1.4c-0.1-0.2,0-0.4,0.2-0.5
		c0.2-0.1,0.4-0.2,0.5-0.4l0.1,0c0,0.1,0,0.1,0.1,0.1c0.1,0,0.2,0,0.2,0.1l0.2,0.2l-0.1,0c0.2,0.2,0.7,0.3,1.5,0.4
		c0.8,0.1,1.9,0.1,3.3,0.2c2.4,0.1,5.3,0,8.8-0.1c3.5-0.1,7-0.2,10.7-0.4c0.7-1.6,1.3-2.8,1.7-3.8c0.5-0.9,0.8-1.7,1.2-2.2
		c0.3-0.5,0.6-0.8,0.8-1c0.2-0.1,0.4-0.2,0.6-0.2c0.7,0,1.4,0.3,2,0.9c0.6,0.6,0.9,1,1,1.3c0.1,0.4-0.1,1-0.5,1.8
		c-0.4,0.8-0.9,1.7-1.5,3c2-0.1,3.6-0.1,4.8-0.1c1.3,0,2.6,0,4.1,0c1,0,2.1,0.1,3.2,0.1c1.1,0.1,2.1,0.2,3,0.3
		c0.9,0.1,1.7,0.3,2.4,0.6c0.7,0.2,1.2,0.5,1.5,0.8l-0.2,0.2l0.3-0.2c0.1,0.1,0.1,0.2,0.1,0.3c0.2,0.3,0,0.5-0.6,0.6
		c-0.3-0.1-0.7-0.2-1.1-0.3c-0.4-0.1-0.9-0.1-1.6-0.1c-1.1,0-2.4,0-3.9,0.2l0.6-0.1l-0.2,0.1l0.2,0l0.1,0l0.2-0.1l0,0.1l1.3,0
		l0.1,0.1l0.3-0.1l0.9,0c0.5,0.1,1,0.2,1.6,0.3c0.6,0.1,1,0.2,1.1,0.3l-0.4,0l0.1,0l-0.1,0l-0.3,0l-0.2,0.1l-0.6,0.1l0.2-0.1l-0.3,0
		c-0.1,0.1-0.2,0.1-0.3,0.2l0-0.1c-0.1,0-0.2,0-0.2,0c0,0-0.1,0-0.2,0l-0.8-0.1l-0.1-0.4l-0.5,0.3l-0.1,0.2l-0.7,0l0.1-0.1l0.2,0
		l0.2-0.1l0.2-0.4l-0.6,0.2l-0.4,0.1L113,23c-0.2,0-0.3,0.1-0.4,0.2l-0.4,0l0.1-0.1l0.1-0.3l-0.5,0l-0.5-0.2l0.1,0.5l0.1,0.1l0.1,0
		l-0.3,0l0.1-0.1l-0.1,0.1l-0.1-0.1l0.1,0.1c0-0.1-0.2,0-0.5,0c-0.3,0.1-0.6,0.1-0.7,0.1c-0.1,0-0.2,0-0.3-0.1
		c-0.1,0-0.2-0.1-0.2-0.1l-0.1-0.2l0.2,0.1c0,0.1,0,0.1,0.1,0.1l0.2,0l0.2,0l-0.1-0.1l0.3-0.2l-0.1-0.1l-0.2-0.1l-0.2,0.1l-0.4,0.1
		l-0.1-0.1l-0.4,0l0.4-0.1l0.2,0l0.2-0.2c-0.1,0-0.2,0-0.4,0c-0.1,0-0.2,0-0.4,0L109,23c0,0.1,0,0.1,0.1,0.1l0.2,0.1l-0.9,0
		c-0.3,0.1-0.6,0.2-0.9,0.1c-0.3,0-0.6,0-0.9,0.1l-0.1-0.1c-0.3,0.1-0.6,0.2-1,0.1c-0.3,0-0.7,0-1,0l0-0.1c-1.2,0.2-2.4,0.4-3.6,0.7
		c-1.2,0.2-2.3,0.4-3.4,0.6c-0.3,0.7-0.9,2.2-1.7,4.3c-0.8,2.1-1.6,4.6-2.5,7.3c-0.8,2.8-1.6,5.7-2.2,8.7c-0.7,3.1-1,5.9-1.1,8.5
		c0,0.6,0.1,1.2,0.2,1.9c0.2,0.6,0.3,1.3,0.4,1.9l0,0.1l-0.1-0.1l0,0.1c0.1,0.1,0.2,0.1,0.3,0.1c1,0,2-0.5,3-1.6
		c1-1.1,1.8-2.2,2.3-3.4c-0.1-0.2,0-0.3,0.1-0.5l0-0.2l0.1-0.1c-0.1-0.1-0.1-0.1-0.1,0c0,0,0,0-0.1,0l0.3-0.4l0-0.5l0.1-0.2l0.2-0.1
		l-0.1,0c0.1-0.2,0.1-0.3,0.2-0.5c0.1-0.2,0.1-0.3,0.1-0.4l0.2,0.1l-0.1,0.1l0.2,0.3l0.2-0.2l0.1-0.3l0-0.2l0.1-0.1l0.2-0.4
		l-0.1-0.1l0.2-0.3c0-0.1,0.1-0.2,0.2-0.3l0.1-0.1l-0.1-0.1l0.1,0c0.4,0,0.6,0.1,0.7,0.2l-0.2,0.4c0,0.1,0,0.1,0.1,0.1l0.1,0.1
		c0,0.1,0,0.1-0.1,0.1l-0.1,0l0.2,0.2c0,0.1,0,0.1-0.1,0.1c-0.1,0-0.1,0-0.1,0.1s0,0.1,0,0.1c0,0,0,0.1,0,0.1l0,0.1l-0.1,0.5
		c0.1,0.1,0.1,0.2,0,0.1c-0.1,0-0.1,0,0,0l0.1,0.1l-0.1,0.2l0,0.3c-0.1,0-0.2,0-0.2,0.1l0.2,0.1l0,0.6c-0.1,0.5-0.3,1.3-0.6,2.3
		c-0.3,1.1-0.7,2.1-1.3,3.2c-0.6,1.1-1.3,2-2.2,2.8c-0.9,0.8-2,1.2-3.4,1.2c-1.1,0-2-0.3-2.8-0.8c-0.8-0.5-1.4-1.2-1.8-2.1
		s-0.7-1.8-0.9-2.9c-0.2-1.1-0.2-2.2-0.1-3.3c0.2-3.1,0.6-6.1,1.1-8.8c0.5-2.7,1.1-5.3,1.8-7.6c0.7-2.3,1.3-4.4,2-6.3
		c0.7-1.8,1.2-3.3,1.8-4.6c-0.2,0.1-0.7,0.1-1.3,0.1c-1.4,0-3.2-0.2-5.2-0.5c-2.1-0.3-4.2-0.5-6.2-0.5L79.2,24L79,24l-0.1,0
		l-0.2-0.1c0,0.1-0.1,0.1-0.4,0.1L78,24l-0.4,0l-1-0.1l-0.2,0.1c-0.4,0-0.7,0-1.1-0.1c-0.4,0-0.8-0.1-1.2-0.2l-0.1,0l-0.5,0l0.1-0.1
		l-0.2,0l0,0.1l-0.2,0l-0.7-0.3l-0.4,0L70.1,22.6z M71.5,22.6L71.5,22.6L71.5,22.6L71.5,22.6z M72.8,23.1L72.8,23.1L72.8,23.1
		L72.8,23.1z M74.4,23.4L74.4,23.4l-0.3,0L74,23.5l0.3,0L74.4,23.4L74.4,23.4z M76,23.4C76,23.5,76.1,23.5,76,23.4L76,23.4z
		 M107.6,22.9l0.2,0l0.2-0.2C107.9,22.8,107.8,22.8,107.6,22.9L107.6,22.9z M112.8,22.8L112.8,22.8L112.8,22.8L112.8,22.8z
		 M112.9,22.5L112.9,22.5l0.2,0L112.9,22.5L112.9,22.5z"/>
</g>
<g id="XMLID_56_">
	<path id="XMLID_57_" class="st0" d="M153.2,56.1c-1.1-0.1-2-0.5-2.7-1.2c-0.7-0.7-1.1-1.4-1.4-2.3c-0.3-0.9-0.5-1.8-0.6-2.8
		c-0.1-1-0.1-1.8-0.1-2.6c0-2.5,0.4-5,1-7.7c0.6-2.7,1.3-5.3,1.9-7.9c1.4-6.3,3.2-12,5.2-17.2c2-5.2,4.5-9.2,7.3-12
		c0.1-0.1,0.2-0.2,0.5-0.5c0.3-0.2,0.7-0.5,1.1-0.8c0.5-0.3,1-0.6,1.6-0.8c0.6-0.2,1.3-0.4,1.9-0.3c0.9,0,1.7,0.2,2.3,0.7
		c0.6,0.4,1.1,1,1.5,1.7c0.4,0.7,0.7,1.5,0.8,2.4c0.2,0.9,0.3,1.8,0.2,2.6c0,2.8-0.4,5.8-1,9c-0.7,3.2-1.4,6.6-2.3,9.9
		c-0.9,3.4-1.8,6.7-2.8,10c-1,3.3-1.7,6.4-2.3,9.2c0.7-0.4,1.8-0.9,3.1-1.5c1.3-0.7,2.7-1.5,4.1-2.6c1.4-1.1,2.7-2.4,3.9-4.1
		c1.2-1.6,2.1-3.7,2.7-6c0.8-2.6,1.6-5.1,2.4-7.6c0.8-2.5,1.5-4.9,2.2-7.1c0.7-2.2,1.3-4,1.7-5.5c0.5-1.5,0.8-2.5,1.1-3l0-0.1
		c0.1-0.1,0.4-0.2,0.7-0.2c0.6,0,1.2,0.1,1.9,0.3s1.2,0.4,1.7,0.6c0.5,0.2,1.1,0.6,1.8,1c-0.8,1.6-1.6,3.4-2.4,5.3
		c-0.8,2-1.7,4-2.5,6.2c-0.9,2.1-1.8,4.3-2.8,6.5c-1,2.2-2,4.4-3.1,6.4l-0.1,0.1c0,0.1,0,0.2-0.1,0.3c-0.1,0.2-0.2,0.3-0.2,0.4
		l-0.4,0.7c-0.8,1.6-1.6,3-2.4,4.2c-0.8,1.2-1.9,2.4-3.5,3.3l-0.3,0.2l-0.2,0.1c2.2,0.1,3.8,0.4,4.8,0.8c1,0.5,1.5,0.8,1.5,0.9
		c0,0.1,0,0.3-0.1,0.5c-0.1,0.2-0.2,0.6-0.4,1.1c0.1,0,0.1,0.2-0.2,0.5c-0.2,0.3-0.4,0.7-0.4,1.1c-0.3,0.7-0.6,1.5-0.9,2.5
		c-0.4,1-0.7,2-1.1,3.1s-0.7,2.2-1,3.3s-0.5,2.1-0.7,3c0.2,0.4,0.3,0.8,0.4,1.2c0.1,0.4,0.1,0.8,0.2,1.1c0.1,0.3,0.2,0.6,0.4,0.9
		c0.1,0.2,0.4,0.4,0.9,0.5l0.1,0.1l0.1,0.1l0-0.1l0.1,0.1c0-0.1,0-0.1,0.1-0.1c0.1,0,0.1,0,0.1-0.1l0.1,0l0.1-0.1l0,0.1l0.1-0.1
		l0.5-0.2c0.2-0.1,0.4-0.2,0.5-0.2c0.2,0,0.3-0.1,0.5-0.2l0.2-0.1l-0.1,0l0.1-0.1l0,0.1l0.1-0.1l-0.1,0l0.1-0.1l0.1,0.1l0.4-0.2
		l0.4-0.3l0.3,0l0-0.2c0.4-0.1,0.7-0.3,0.9-0.4l-0.1,0.1l0,0.4l0,0.2l-0.1-0.1c0,0.1,0,0.2-0.1,0.2l-0.4,0.3l0-0.1
		c0,0.1,0,0.2-0.1,0.2c-0.1,0-0.1,0-0.1,0.1c0.4-0.2,0.7-0.4,1-0.5c0.3-0.2,0.6-0.3,0.8-0.4c0.2-0.2,0.5-0.3,0.7-0.5
		c-0.2-0.1-0.1-0.1,0.2,0.1c0.3,0.2,0.5,0.4,0.5,0.7c-0.6,0.8-1.3,1.6-2.1,2.3c-0.7,0.6-1.5,1.1-2.5,1.6c-1,0.4-2,0.7-3.3,0.6
		c-0.9,0-1.7-0.3-2.3-0.9c-0.6-0.6-1.1-1.2-1.4-2c-0.3-0.8-0.5-1.6-0.6-2.4c-0.1-0.8-0.2-1.6-0.2-2.2c0-2.3,0.2-4.5,0.5-6.6
		c0.3-2.1,0.6-3.9,0.9-5.4l-1.7,0c-0.6,0-1.3,0-1.9,0c-0.7,0-1.4,0.1-2,0.2l-0.2,0.1c-0.2,0.1-0.5,0.2-0.7,0.3
		c-0.2,0.1-0.4,0.2-0.7,0.3l-0.2,0l-0.1,0c0,0.1,0,0.1,0.1,0.1l-0.2,0l0-0.1l0,0.1l0,0.1l-0.2,0.1l-0.3,0.3l-0.1,0.1l-0.7,0.4
		l-0.1,0.1l0,0.1l-0.1-0.1l-0.3,0.4l-0.1,0.1l-0.2,0l-0.1,0.1c-0.2,0.2-0.5,0.6-0.7,1.1c-0.2,0.5-0.4,1-0.6,1.6
		c-0.2,0.6-0.3,1.1-0.4,1.7c-0.1,0.6-0.2,1-0.2,1.3l-0.1,0.6l-0.1,0.5l-0.4,1.8l0.1,0l-0.8,3.8l0,0.6l-0.1,0.2l0,0.1l0,0.2l-0.3,1.3
		l-0.2,0.9c0,0.2,0,0.4-0.1,0.5l0,0.1l-0.2,0.6l0,0.5c-0.1,0.5-0.2,1-0.3,1.6c-0.1,0.6-0.1,1.1-0.2,1.4l0-0.3l0-0.3l-0.2-0.6l0,0.1
		l-0.1-0.3l0,0.1l0.1-0.3c-0.1-0.1-0.1-0.3-0.1-0.6c0.1-0.6,0.2-1.1,0.2-1.4l0.1,0c0-0.1,0-0.1,0-0.1c0,0,0-0.1,0-0.1
		c0-0.8,0.1-1.5,0.3-2c0.2-0.5,0.2-1,0.2-1.3c-0.5,1.6-0.9,2.9-1.1,3.8c-0.2,0.9-0.4,1.6-0.5,2.1c-0.1,0.5-0.2,0.7-0.3,0.8
		c-0.1,0.1-0.2,0.1-0.4,0.1c-0.2,0-0.4-0.1-0.5-0.2c-0.1-0.1-0.1-0.2-0.1-0.3c0-0.7,0.2-2.3,0.7-4.7c0.5-2.4,1.1-5.4,1.9-8.9
		c0.8-3.5,1.6-7.4,2.6-11.7c0.9-4.3,1.8-8.6,2.7-13c0.8-4.1,1.5-8.2,2.1-12.3c0.6-4.1,1-7.7,1-10.9c0-0.2,0-0.5,0-0.7
		c0-0.2,0-0.4,0-0.7c-1.2,1.2-2.5,2.8-3.7,4.7c-1.3,1.9-2.5,4.1-3.7,6.4c-1.2,2.3-2.3,4.8-3.4,7.5c-1.1,2.6-2,5.2-2.8,7.8
		c-0.8,2.6-1.4,5-1.9,7.4c-0.5,2.4-0.7,4.5-0.7,6.3c0,0.4,0,0.7,0,1.1c0,0.3,0,0.7,0,1.1l0,0.3c0,0.2,0,0.3,0.1,0.4l-0.1,0l0.1,0.3
		c0.1,0,0.1,0.1,0,0.2c0,0.1,0,0.2,0.1,0.2l0,0.4l0.1,0.2l0.1,0.3l0-0.1l0,0.1c0.1,0.1,0.1,0.3,0.2,0.4c0.1,0.2,0.2,0.3,0.3,0.4
		l0.2,0.2c0.2,0.2,0.6,0.4,1,0.4c0.2,0,0.5-0.1,1-0.2l0.1-0.1l0.4-0.2l0,0.1l0.1-0.1c0-0.1,0-0.1,0.1-0.2l0.7-0.5l0.3-0.6
		c0.1,0,0.2-0.1,0.3-0.3c0.1-0.2,0.2-0.3,0.2-0.5l0.2-0.4l-0.1,0c0.3-0.7,0.5-1.4,0.5-2l0,0.2l0.3,0.5l0-0.1l0.1,0.2l0-0.1l-0.1,0.2
		l0,0.3c0,0.2,0,0.4-0.1,0.7c-0.1,0.3-0.1,0.5-0.1,0.6l-0.1,0l0,0.1c0,0.1-0.1,0.3-0.2,0.6c-0.1,0.3-0.3,0.6-0.6,0.9
		c-0.2,0.3-0.5,0.6-0.8,0.9c-0.3,0.3-0.6,0.4-0.9,0.5l0.1-0.1l-0.1,0l-0.1,0l-0.1,0l0.1,0c0,0.1-0.2,0.2-0.5,0.3
		c-0.3,0.1-0.6,0.1-0.9,0.2l0-0.1l-0.2,0c-0.5,0-0.9-0.3-1.3-0.8c-0.4-0.5-0.7-1.1-0.9-1.8c0.2,1.9,1.1,2.9,2.5,2.9
		c0.4,0,0.8,0,1.2-0.2c0.4-0.1,0.7-0.2,0.9-0.4c1-0.6,1.7-1.3,2.1-2.1c0.4-0.8,0.7-1.6,0.8-2.3c0.1-0.7,0.2-1.4,0.2-1.9
		c0-0.5,0-0.8,0.1-0.8c0,0.1,0,0.1,0-0.1c0-0.2,0.2-0.3,0.6-0.3c0.3,0,0.5,0.2,0.5,0.6c0,0.4,0,0.9,0,1.4c0,0.1,0,0.6-0.1,1.4
		c-0.1,0.8-0.3,1.7-0.8,2.7c-0.4,1-1.1,1.9-2,2.7c-0.9,0.8-2.1,1.2-3.6,1.1C153.7,56.2,153.4,56.1,153.2,56.1z M151.9,45.1
		c-0.1,0.1-0.1,0.3-0.1,0.6l0.1,0.3l0-0.5L151.9,45.1z M151.9,45.6l0-0.3l0-0.2C151.8,45.2,151.8,45.4,151.9,45.6l0,0.4L151.9,45.6z
		 M152.4,52.4L152.4,52.4L152.4,52.4L152.4,52.4z M153.1,53.2L153.1,53.2C153.1,53.1,153.1,53.2,153.1,53.2
		C153,53.2,153,53.2,153.1,53.2z M153.2,53.1L153,53L153.2,53.1z M155,53.3l0.3-0.1l0.1-0.2L155,53.3L155,53.3z M155,53.2L155,53.2
		l0.3-0.1l0.1-0.1L155,53.2L155,53.2z M156.6,52.6c-0.2,0.2-0.3,0.3-0.3,0.4L156.6,52.6z M157.5,50.5l-0.2,0l0.1-0.4l0.2,0
		L157.5,50.5z M157.4,51.5L157.4,51.5c0.1,0.1,0.1,0.1,0.2,0L157.4,51.5z M157.8,51.1L157.8,51.1L157.8,51.1L157.8,51.1L157.8,51.1z
		 M158,48.1L158,48.1l0.1-0.2l-0.2-0.5l0.1,0.1l0.3,0.1l0.1,0.1l0,0.1l0,0.3l0,0.5l0,0.3l-0.1-0.3l0,0.2l-0.3-0.5L158,48.1z
		 M158.1,48L158.1,48L158.1,48L158.1,48z M158,47.6l0-0.3c0-0.2,0-0.4,0.1-0.4l0,0.3l0.1-0.3l-0.1-0.2c0.1,0,0.1,0,0.1-0.1l0.2,0.4
		l-0.1,0l-0.1-0.1l0,0.2l0,0.2l0-0.2c0.1,0,0.1,0,0.1,0.1c0,0.1,0,0.1,0.1,0.1l0-0.1l0,0.4l-0.1,0c0.1,0.1,0.1,0.2,0.1,0.3l0-0.1
		c0-0.1,0-0.1-0.1-0.1l-0.1-0.1L158,47.6z M158.4,48.6l0-0.3L158.4,48.6L158.4,48.6z M159.8,71.1l0,0.3c-0.1,0.1-0.1,0.3-0.1,0.5
		l0,0.1c-0.1,0-0.1,0-0.1-0.1l0-0.3l0,0.6l-0.1,0l0,0.2l-0.1-0.6l0.1,0.1l0.1-0.2c0-0.1,0-0.1,0-0.1c0,0,0-0.1,0-0.1
		c0,0.1,0,0.2,0.1,0.3c0.1,0,0-0.1-0.2-0.3l0,0.1l0-0.5l0,0.1l0-0.5l0,0.2c0,0.1,0,0.1,0,0.1c0,0,0,0,0,0.1l0.1,0L159.8,71.1z
		 M159.8,70.5l0.1,0.6l-0.1-0.1l-0.3-0.1c0-0.1,0-0.1,0-0.1c0,0,0,0,0-0.1l0-0.2l0-0.3l0.1-0.6l0-0.4l0.1,0.4l0-0.2l0.2,0.6
		L159.8,70.5L159.8,70.5z M159.6,69.8l-0.1,0.3l0-0.5L159.6,69.8z M160,66.6L160,66.6l0-0.2L160,66.6z M160,66
		C160,66,160.1,66,160,66c0.1-0.1,0.1-0.1,0.2-0.1l-0.1-0.1L160,66z M160.3,67.2l0.2-0.1l-0.1,0.6l-0.2-0.1L160.3,67.2z M160.4,64.1
		c0-0.1,0-0.1,0-0.1c0,0,0-0.1,0-0.1c0-0.1,0-0.1,0-0.1c0,0,0-0.1,0-0.1L160.4,64.1z M160.6,64.4L160.6,64.4l0,0.2L160.6,64.4z
		 M160.9,62.3L160.9,62.3L160.9,62.3L160.9,62.3z M161.1,62l-0.2,0.1l0,0.3l0.1,0.2l0.1-0.4L161.1,62z M161.1,62L161.1,62l-0.2,0.3
		l0.1,0.3l0.1-0.4L161.1,62z M164.4,49.8C164.4,49.7,164.3,49.7,164.4,49.8L164.4,49.8z M164.3,50.3l0.2,0.1l-0.1,0.1L164.3,50.3
		L164.3,50.3z M164.4,49.5c0.1-0.1,0.2-0.2,0.2-0.3L164.4,49.5L164.4,49.5z M164.5,49.5L164.5,49.5L164.5,49.5L164.5,49.5z
		 M164.9,49.2L164.9,49.2L164.9,49.2L164.9,49.2z M165.2,49.4L165.2,49.4L165.2,49.4L165.2,49.4L165.2,49.4z M165.3,49.4L165.3,49.4
		l-0.2-0.1L165.3,49.4L165.3,49.4L165.3,49.4z M176,62.3L176,62.3l0-0.4L176,62.3z M176.1,61.9l0,0.3l0,0.1L176.1,61.9z M176.4,63.6
		l0.3,0l0-0.2l-0.1-0.1l-0.3,0.1L176.4,63.6z M176.3,63.4l0.1,0.2l0.3,0l0-0.2l-0.1-0.1l-0.1,0.1L176.3,63.4z M176.8,63.8l0.2,0.1
		L176.8,63.8l-0.1-0.2L176.8,63.8z M176.7,63.6l0.1,0.2l0.2,0.1l-0.1-0.2L176.7,63.6z M177.5,41.2l0.1-0.2l0.1-0.3l-0.4,0.4
		l-0.1,0.3L177.5,41.2z M177.4,41.1l0.4-0.4l-0.2,0.4l-0.3,0.3L177.4,41.1z M178,40.2c-0.1,0.1-0.2,0.1-0.2,0.2
		c0,0.1-0.1,0.1-0.2,0.2l0.2,0.1l0.2-0.2l0.1,0.1l-0.1-0.1L178,40.2L178,40.2z M177.9,40.5L177.9,40.5L177.9,40.5l0.2-0.2l-0.1-0.1
		c-0.1,0.1-0.2,0.1-0.2,0.2c0,0.1-0.1,0.1-0.2,0.2l0.2,0.1L177.9,40.5z M179.6,64.3C179.6,64.3,179.6,64.4,179.6,64.3L179.6,64.3z
		 M180,48.5c0-0.1,0-0.1,0-0.1c0,0,0-0.1,0-0.1l0.1,0l0,0.4L180,48.5z M180.3,63.8L180.3,63.8l0.1-0.2L180.3,63.8L180.3,63.8z
		 M180.3,63.7L180.3,63.7L180.3,63.7L180.3,63.7z M181,63.6C181,63.7,181,63.7,181,63.6c-0.1,0.1-0.1,0.1-0.1,0.2L181,63.6z
		 M181.6,63.4C181.5,63.4,181.5,63.3,181.6,63.4L181.6,63.4z M181.7,62.8l-0.2-0.1l0.2-0.2L181.7,62.8L181.7,62.8z M182.6,62.3
		l0-0.3l0.2,0.3l0.1,0.2l-0.2,0.2l-0.2,0.1l0-0.2l0,0.1L182.6,62.3L182.6,62.3z M182.6,62.7L182.6,62.7L182.6,62.7L182.6,62.7z
		 M182.7,62.2L182.7,62.2c0.2-0.2,0.2-0.2,0.3-0.2l-0.1,0.1L183,62l0,0.1c0.1,0,0.1,0,0.1-0.1l-0.1,0.3l-0.1-0.2l-0.1,0.2l0.1-0.1
		l0,0.2l0-0.1l0,0.2l-0.1-0.1c0,0.1,0,0.1-0.1,0.2l0.1-0.1L182.7,62.2L182.7,62.2z"/>
	<path id="XMLID_112_" class="st0" d="M200.7,39.7c0.1-0.1,0.3,0,0.4,0.1c0.2,0.1,0.2,0.2,0.2,0.3c0,0.1,0,0.1-0.1,0.1
		c-0.1,0-0.1,0.1-0.2,0.2l0,0.2c0,0.1,0,0.1,0.1,0.1c0,0.1,0,0.1-0.1,0.1c-0.1,0-0.1,0-0.1,0.1c-0.1,0-0.1,0,0,0.1
		c0.1,0.1,0.1,0.1,0,0.2c0,0.1,0,0.1-0.1,0.1c-0.1,0-0.1,0-0.1,0.1c-0.1,0.1-0.1,0.2,0,0.3c0.1,0.1,0.1,0.1,0,0.2l-0.1,0.1l0,0.2
		l-0.2,0.5c0,0.1,0,0.1-0.1,0.1c-0.1,0-0.1,0-0.1,0.1c0,0.1,0,0.1,0.1,0.2l-0.1,0.3l-0.1,0.4l0,0.1c-0.1,0.1-0.2,0.1-0.3,0.1
		c0,0.1,0,0.1,0.1,0.1c0.1,0,0.1,0.1,0.1,0.1l-0.1,0.3l-0.2,0.6c-0.4,1.2-0.9,2.6-1.4,4.1c-0.2,0.4-0.4,0.7-0.6,1.1
		c-0.2,0.4-0.4,0.8-0.8,1.3c-0.2,0.2-0.4,0.5-0.5,0.8c-0.2,0.3-0.6,0.5-1.3,0.8c-0.2,0.2-0.3,0.3-0.5,0.4l0,0.1
		c-0.3,0.1-0.7,0.1-1.2,0c0-0.1,0-0.1,0.1,0c0.1,0,0,0-0.1,0l-0.2,0c-0.1-0.1-0.1-0.2-0.1-0.3c0-0.1,0-0.2,0-0.3
		c-0.4-0.3-0.7-0.6-0.9-0.9l-0.4-1.1c-0.1-0.3-0.2-0.6-0.2-1c0-0.4,0-0.7,0-1c-0.4,0.7-0.9,1.5-1.5,2.4c-0.6,0.9-1.4,1.6-2.4,2
		c-0.4,0.4-0.9,0.5-1.6,0.5l0.3,0l-0.1-0.1l0.2,0c0.1,0,0.2-0.1,0.4-0.2l0.1,0.1l0.3-0.2c0.1,0,0.1,0,0.1,0c0,0,0,0,0.1,0l-0.4,0
		l-0.1,0.1l0.1-0.1l-0.4,0l0.1,0.1l-0.2,0.1c0-0.1-0.1-0.1-0.3-0.1l-0.2,0l0,0.1l-0.2,0l-0.1,0l-0.1,0.1l0.1,0.1
		c0,0.1,0.1,0.1,0.3,0.1l-0.2,0c-0.2-0.1-0.5-0.3-0.7-0.4c-0.2-0.2-0.4-0.3-0.7-0.4l0-0.1l-0.1,0c-0.6-0.4-1-0.9-1.3-1.4
		c-0.3-0.6-0.4-1.1-0.5-1.6c-0.3-1.6-0.5-3-0.4-4.1c0-2.6,0.3-5.1,0.9-7.5s1.4-4.6,2.4-6.5c1-2,2.1-3.7,3.1-5.1c1-1.4,2-2.5,2.9-3.3
		c0.9-0.8,1.5-1.2,1.9-1.4c0.2-0.1,0.5-0.2,0.7-0.2c0.5,0,0.9,0.4,1.4,1.2c0.4,0.7,0.5,1.3,0.5,1.7c0,0.4-0.1,0.6-0.4,0.8
		c-0.3,0.3-0.7,0.6-1.2,1c-0.5,0.4-1,1-1.7,1.8c-0.7,0.8-1.4,1.8-2.2,3.1c-0.8,1.3-1.6,3.1-2.5,5.3c-0.3,0.7-0.6,1.6-0.9,2.6
		c-0.3,1-0.5,2-0.8,3.1c-0.2,1.1-0.4,2.2-0.5,3.4c-0.1,1.1-0.1,2.3,0,3.4c0.1,0.7,0.2,1.1,0.4,1.2c0.2,0.1,0.3,0.2,0.3,0.1
		c0.3-0.2,0.7-0.5,1.1-1s0.8-1,1.1-1.5c0.7-1,1.3-2.1,1.9-3.1c0.6-1,1.1-2,1.6-2.9l0-0.1c0.1-0.4,0.1-0.7,0.2-1.1
		c0.1-0.4,0.1-0.7,0.2-1.1c0.4-1.7,0.8-3.3,1.3-4.9c0.5-1.5,0.9-2.9,1.3-4.1c0.4-1.2,0.8-2.2,1.1-2.9c0.3-0.8,0.6-1.2,0.8-1.4
		c0.1-0.2,0.2-0.3,0.5-0.4c0.2-0.1,0.4-0.1,0.6,0c0.2,0,0.6,0.2,1.1,0.5c1.2,0.9,1.6,1.5,1.4,1.9c-0.1,0.3-0.3,0.7-0.4,1.1
		c-0.2,0.5-0.4,1.1-0.7,1.8c-0.3,0.8-0.6,1.7-1,2.8c-0.4,1.1-0.8,2.6-1.3,4.3c-0.3,1.3-0.7,2.8-1.3,4.5c-0.5,1.7-0.9,3.5-1.3,5.3
		c0,0.2,0,0.5-0.1,0.7c0,0.2-0.1,0.4-0.1,0.7c0.5-0.7,1-1.5,1.4-2.3c0.4-0.8,0.8-1.5,1.2-2.2l0-0.1l0.2-0.3l0.1-0.3l0-0.1l0.2-0.4
		c0-0.1,0-0.1,0-0.1c0,0,0-0.1,0-0.1l0.1-0.1l0.1-0.2l0.1,0l0.1-0.3l-0.1,0c0.1-0.2,0.3-0.5,0.4-0.7c0.1-0.2,0.3-0.5,0.4-0.6l0,0.1
		l-0.1,0l0,0.1l0,0.1l0.2-0.1c0.1-0.1,0.1-0.1,0-0.1c0,0,0-0.1,0-0.1l-0.1-0.1l0.1-0.1c0.1-0.1,0.1-0.2,0.1-0.2c0,0,0,0,0,0l0.4-0.4
		l0-0.2l0.2-0.2l0.1-0.3c0.1-0.1,0.2-0.2,0.3-0.4C200.5,39.8,200.6,39.8,200.7,39.7L200.7,39.7L200.7,39.7z"/>
	<path id="XMLID_114_" class="st0" d="M250.3,63.2c0.1,0.1,0.3,0.2,0.5,0.3c0.4,0.2,0.5,0.7,0.5,1.2c0,1.8-0.7,2.7-2.1,2.6
		c-0.7-0.1-1.8-0.3-3.5-0.7c-1.7-0.4-4-0.9-7-1.5c-3-0.6-6.8-1.4-11.3-2.2c-4.5-0.9-9.9-1.9-16.3-3c-0.5,1.5-1.2,3.1-2.1,4.8
		c-0.9,1.7-2,3.3-3.4,4.8c-1.4,1.5-3,2.7-4.9,3.7s-4.1,1.5-6.5,1.4c-1.3,0-2.6-0.2-4-0.6c-1.4-0.4-2.7-0.9-3.9-1.7
		c-1.2-0.7-2.4-1.6-3.3-2.7c-1-1.1-1.7-2.2-2.2-3.5c-0.1-0.2-0.2-0.5-0.2-0.6c0-0.2-0.1-0.3-0.2-0.5l0.1,0c0-0.1,0-0.2,0-0.3
		c0-0.1,0-0.2,0-0.3l0,0.1l0.1-0.1c-0.1,0-0.1-0.1-0.1-0.3c0-0.2,0-0.3-0.1-0.4c0-0.1,0-0.2,0.1-0.4c0-0.1,0-0.2,0.1-0.4l0.1-0.1
		l0.2-0.7c0.1-1,0.5-1.9,1.1-2.5c0.6-0.6,1.5-1.2,2.6-1.8l1.5-0.5c0.1,0,0.1,0,0.2,0c0.1,0,0.4-0.1,1.1-0.2c0.2-0.1,0.3-0.2,0.3-0.2
		c0,0,0.1,0,0.2,0l0.4,0c0.1,0,0.2,0,0.2-0.1c0-0.1,0.1-0.1,0.2-0.1c0.1,0,0.2,0,0.3,0c0.1,0,0.2,0,0.3,0c0.1-0.1,0.2-0.1,0.4-0.2
		c0.1-0.1,0.2-0.1,0.4-0.2l0.2,0.1l0.3-0.2l1-0.1c0.1,0,0.1,0,0.2,0c0.1,0,0.1,0,0.2,0c0.1,0,0.1,0,0.1,0c0,0,0.1,0,0.1,0l0.6,0
		l0.7-0.2c0.1,0,0.1,0,0.2,0.1c0.1,0.1,0.1,0.1,0.2,0.1c0.1,0,0.1,0,0.1-0.1c0-0.1,0.1-0.1,0.1-0.1l1.6-0.1c0.7-0.1,1.4-0.1,2.2-0.1
		c0.8,0,1.6,0,2.5,0c2.3,0,4.8,0.2,7.4,0.4c0.3-1.5,0.7-2.9,1-4.3c0.4-1.4,0.7-2.8,1-4.2l-0.4,0.5c-0.3,0.4-0.7,1-1.1,1.6
		c-0.4,0.6-0.9,1.3-1.5,1.9c-0.6,0.6-1.2,1.2-2,1.6c-0.7,0.5-1.6,0.7-2.5,0.7c-0.7,0-1.2-0.2-1.6-0.5c-0.4-0.3-0.7-0.7-1-1.1
		c-0.3-0.4-0.4-0.8-0.5-1.2c-0.1-0.4-0.1-0.8-0.1-1c0-2.3,0.2-4.6,0.6-6.7c0.4-2.1,0.8-4.3,1.3-6.3c1.2-5.6,2.4-9.7,3.5-12.2
		c1.1-2.5,1.9-3.7,2.4-3.7c0.4,0,0.7,0.1,1.1,0.3c0.4,0.2,0.7,0.5,0.9,0.7c0.2,0.3,0.5,0.7,0.8,1.2c0,0.3-0.1,0.7-0.3,1.2
		c-0.2,0.5-0.5,1.2-0.8,2.2c-0.4,0.9-0.8,2.1-1.2,3.5c-0.5,1.4-1,3.2-1.6,5.3c-0.3,0.9-0.6,1.9-1,3.2c-0.4,1.3-0.8,2.6-1.2,3.9
		c-0.4,1.4-0.7,2.7-1,4.1c-0.3,1.3-0.4,2.5-0.5,3.6c0,0.6,0.1,0.8,0.4,0.8c0.7,0,1.5-0.4,2.4-1.3c0.9-0.9,1.6-1.6,2.1-2.2l0.4-0.4
		l0.7-0.7l0.3-0.2l0.3-0.5c0-0.1,0.1-0.2,0.2-0.3l0.3-0.4l0.1,0.1l0.1-0.3c0.2-0.2,0.4-0.5,0.6-0.8c0.2-0.3,0.3-0.5,0.5-0.7
		l-0.1,0.1l-0.1,0.2l0.1,0.3l0.3-0.4l0-0.3l0-0.3c0.1,0,0.2-0.5,0.4-1.4c0.2-0.9,0.5-2,0.7-3.2s0.5-2.4,0.8-3.5
		c0.3-1.2,0.5-2,0.6-2.4c0.5-2.1,0.8-3.8,1.1-5c0.3-1.3,0.6-2.3,0.8-3c0.2-0.7,0.5-1.2,0.8-1.5c0.3-0.2,0.7-0.4,1.2-0.4
		c0.6,0,1.3,0.2,2.2,0.6c0.8,0.4,1.2,0.9,1.2,1.4c0,0.3-0.1,0.6-0.2,0.9c-0.1,0.3-0.3,0.7-0.5,1.2c-0.2,0.5-0.5,1.4-0.9,2.4
		c-0.4,1.1-0.9,2.5-1.4,4.4c-0.5,1.8-1,4.1-1.6,6.7c-0.6,2.6-1.4,5.8-2.3,9.6c0,0.1,0.1,0.2,0.2,0.2c0.2,0,0.5-0.3,1-1
		c0.5-0.7,1.2-1.8,2.1-3.4l0.2-0.5l0.1-0.3l0.1-0.1l-0.1,0c0-0.1,0-0.1,0-0.1c0,0,0,0,0-0.1l0.4-0.5l0.2-0.5
		c0.1-0.1,0.1-0.1,0.1-0.1c0,0,0-0.1,0.1-0.1l0.2-0.4l0.2-0.2l-0.1,0c0.3-0.5,0.6-1,0.9-1.5l-0.1,0.1l-0.1,0.2l0.1,0.4l0-0.1l0.1,0
		l0.1-0.1l0.2-0.4l-0.1-0.2l-0.1-0.3l0.2-0.2l0,0.2l0.1-0.2l0,0.1l0.1-0.2l0,0.1l0.1-0.1l0,0.3l-0.1,0l0-0.1c-0.1,0-0.2,0.1-0.2,0.2
		c0,0.1,0,0.1,0.1,0.1l0-0.2c-0.1,0,0,0.1,0.1,0.2l-0.1,0.2l0.2-0.4l0.3-0.5c0.2-0.3,0.4-0.5,0.6-0.5l0-0.2l0.1,0
		c0.1,0,0.2,0,0.4,0.1c0.1,0.1,0.2,0.2,0.2,0.3c0,0.1,0,0.1-0.1,0.2c-0.1,0.1-0.2,0.2-0.2,0.3l0,0.2c0,0.1,0,0.1,0.1,0.1
		c0,0.1,0,0.1-0.1,0.1c-0.1,0-0.1,0.1-0.1,0.2c0,0.1,0,0.1,0.1,0.2c0,0.1-0.1,0.2-0.2,0.2c-0.1,0-0.2,0.1-0.2,0.2c0,0.1,0,0.1,0,0.2
		c0,0.1,0,0.1,0,0.2l-0.2,0l0.1,0.3l-0.3,0.5c0,0.1,0,0.1-0.1,0.1c-0.1,0-0.1,0-0.1,0.1l0,0.2l-0.2,0.4l-0.1,0.5c0,0.1,0,0.1-0.1,0
		c-0.1,0-0.1,0-0.1,0.1l0,0.1l0,0.1l-0.4,0.9c-0.2,0.4-0.4,1-0.7,1.8c-0.3,0.9-0.7,1.7-1.1,2.7c-0.5,0.9-1.1,1.7-1.7,2.4
		c-0.7,0.7-1.5,1-2.4,1l-0.4,0c-0.1,0.4-0.2,0.9-0.3,1.3c-0.1,0.5-0.2,0.9-0.3,1.4c4.2,0.4,8.5,0.9,12.9,1.6
		c4.3,0.6,8.3,1.2,11.9,1.9c3.6,0.7,6.6,1.3,9.1,1.8C248.4,62.6,249.9,63,250.3,63.2z M192.7,70.6c0.3,0.1,0.6,0.2,1,0.2
		c0.3,0,0.7,0,1,0c1.5,0,2.8-0.3,4.1-0.9c1.3-0.6,2.4-1.5,3.5-2.5c1.1-1,2-2.2,2.8-3.6c0.8-1.4,1.4-2.9,1.9-4.4
		c-1-0.1-2-0.2-2.9-0.2c-1,0-2,0-3-0.2l-0.4-0.1l-0.3,0l-0.4,0c0,0.1-0.1,0.1-0.2,0c-0.1,0-0.2,0-0.2,0l-0.6,0l-0.3,0l-1.4,0l-0.4,0
		l0.1,0c-0.5,0.1-1,0.1-1.5,0.1c-0.5,0-1,0-1.5,0l-0.2,0l-0.5,0.1l-0.2-0.1c0,0.1-0.1,0.1-0.2,0.1l-1,0.1l-0.8,0.1l-0.6,0l-0.5,0.1
		l0-0.1l-0.4,0.1c-0.7,0-1.5,0.2-2.2,0.4l0.2-0.1l0.4-0.4l-0.1,0l0.2-0.1l-0.1,0l0.2-0.1c0.1-0.1,0.4-0.2,0.7-0.3
		c0.3-0.1,0.6-0.1,0.9-0.1l0.1,0c0.1-0.1,0.4-0.2,0.8-0.2c0.4,0,0.7,0,0.8,0l0.2,0c0.4-0.1,0.7-0.2,1.1-0.2c0.3,0,0.7-0.1,1.1-0.1
		l-0.1,0.1c0.1,0,0.1,0,0.1,0c0,0,0,0,0.1,0c0-0.1,0.2-0.2,0.7-0.2c0.5,0,0.8,0,0.9,0l0.7,0l0.3,0c0.1-0.1,0.3-0.1,0.5-0.1
		c-0.2,0-0.4,0-0.6-0.1l-1.5,0l-0.9-0.2l-0.6,0.1c-0.1,0-0.1,0-0.2,0c-0.1,0-0.2,0-0.3,0l-0.3-0.1l-1.8,0.3c-0.1,0-0.2,0-0.3,0
		c-0.1,0-0.2,0-0.3,0s-0.2,0-0.2,0.1c0,0.1-0.1,0.1-0.1,0.1l-0.7,0.1l-1,0.3c-0.1,0-0.1,0-0.2,0c-0.1,0-0.2,0-0.3,0l-0.3,0.3
		l-0.6,0.2c-1.4,0.3-2.4,0.7-3.1,1.3c-0.7,0.6-1,1.3-1,2c0,0.7,0.2,1.6,0.7,2.4c0.5,0.9,1.2,1.7,2,2.5c0.8,0.8,1.9,1.5,3.1,2.1
		C190.2,70,191.4,70.4,192.7,70.6z M185.7,71.4l-0.5-0.5l-0.7-0.4l0.5,0.4l0.2,0.2L185.7,71.4z M186.9,71.7l-0.5-0.3l-0.5-0.3l0,0.2
		l0.5,0.3l-0.1,0.1l0.5,0.2L186.9,71.7z M187.1,71.7c-0.1-0.1-0.2-0.2-0.4-0.2c-0.1,0-0.2-0.1-0.4-0.2l-0.2,0L187.1,71.7L187.1,71.7
		z M192,73.8L192,73.8c-0.2-0.2-0.4-0.2-0.6-0.2c-0.2,0-0.4-0.1-0.6-0.1l0.1,0l0.5,0.2L192,73.8z M191.2,58.8
		C191.2,58.8,191.2,58.7,191.2,58.8L191.2,58.8z M192,58.7l-0.2,0L192,58.7L192,58.7z M192.5,58.7l-0.2,0.1L192.5,58.7L192.5,58.7z
		 M193,73.9c-0.1,0-0.2,0-0.3-0.1c-0.1,0-0.2,0-0.3,0c0.1,0,0.1,0,0.1,0c0,0,0.1,0,0.2,0L193,73.9z M192.7,58.7
		c0.3,0,0.5-0.1,0.5-0.2L192.7,58.7z M194,58.9l0.5,0l-0.1-0.1l-0.2,0L194,58.9z M194.2,58.7L194.2,58.7L194.2,58.7L194.2,58.7z
		 M194.2,58.6l0.2-0.1L194.2,58.6L194.2,58.6z M196.6,58.5L196.6,58.5c0.1,0.1,0.1,0.1,0.1,0c0,0,0.1,0,0.1,0L196.6,58.5z
		 M197.7,58.5L197.7,58.5C197.8,58.5,197.8,58.5,197.7,58.5L197.7,58.5z"/>
	<path id="XMLID_131_" class="st0" d="M219.5,52.4c-0.2-0.9-0.4-1.7-0.4-2.4c0-0.8-0.1-1.5-0.1-2.1c0-1.2,0.2-3.6,0.7-7.1
		c0.4-3.5,1.6-8.4,3.6-14.5c0.8-2.7,1.5-5.2,2.3-7.6c0.8-2.4,1.5-4.5,2.1-6.3c0.6-1.8,1.1-3.3,1.5-4.5c0.4-1.2,0.7-1.9,0.8-2.2
		c0.1-0.1,0.2-0.3,0.3-0.5c0.1-0.1,0.3-0.2,0.4-0.3c0.2-0.1,0.4-0.1,0.7-0.1c1,0,1.7,0.2,2.1,0.7c0.4,0.4,0.6,0.8,0.6,1.1
		c0,0.4-0.2,1.1-0.6,2.3c0,0.1-0.2,0.9-0.6,2.2c-0.4,1.3-0.9,2.9-1.4,4.6c-0.5,1.7-1.1,3.4-1.7,5c-0.6,1.6-1,2.8-1.2,3.6
		c-1.3,4.8-2.4,9.1-3.4,12.9c-0.9,3.9-1.5,6.8-1.6,8.9c0-0.1,0,0.1-0.1,0.5c0,0.4-0.1,0.9-0.1,1.5c0,0.6,0,1.3,0.1,2.1
		c0,0.8,0.2,1.5,0.3,2.2c0.1,0.3,0,0.5-0.3,0.5c0.5,0,1.1-0.3,1.8-1c0.7-0.7,1.3-1.3,1.9-1.8l0.2-0.2l0.3-0.3l0.2,0l0.2-0.3l0.3-0.3
		l0.1-0.2l0.2,0.1l0.1-0.2l0.1-0.2l0.3,0l0-0.2l0.2-0.2c0.1,0,0.1,0,0.1,0c0,0,0.1,0,0.1,0l0.1,0l-0.1-0.1l0.1,0
		c0.1,0,0.3,0,0.4,0.1c0.2,0.1,0.2,0.2,0.2,0.3c0,0.1,0,0.1-0.1,0.1c-0.1,0-0.1,0-0.2,0.1l0.1,0.2l-0.2,0l0.1,0.2c0,0.1,0,0.1-0.1,0
		c-0.1,0-0.1,0-0.1,0l0,0.2l0,0.1l-0.1,0l0.1,0.1l-0.3,0.3l-0.1,0.2l-0.1,0.3l-0.1,0l0.1,0.1l-0.3,0.5c-0.1,0.2-0.3,0.6-0.6,1.2
		c-0.3,0.6-0.6,1.2-1,1.9c-0.4,0.6-0.9,1.2-1.6,1.7c-0.7,0.5-1.4,0.8-2.4,0.8c-0.7,0-1.3-0.2-1.8-0.5c-0.5-0.3-0.8-0.7-1.1-1.1
		c-0.3-0.4-0.5-0.8-0.7-1.2C219.7,53,219.6,52.7,219.5,52.4z"/>
	<path id="XMLID_133_" class="st0" d="M246.1,40.4c0.1-0.1,0.3,0,0.4,0.1c0.2,0.1,0.2,0.2,0.2,0.3c0,0.1,0,0.1-0.1,0.1
		c-0.1,0-0.1,0.1-0.2,0.2l0,0.2c0,0.1,0,0.1,0.1,0.1c0,0.1,0,0.1-0.1,0.1c-0.1,0-0.1,0-0.1,0.1c-0.1,0-0.1,0,0,0.1
		c0.1,0.1,0.1,0.1,0,0.2c0,0.1,0,0.1-0.1,0.1c-0.1,0-0.1,0-0.1,0.1c-0.1,0.1-0.1,0.2,0,0.3c0.1,0.1,0.1,0.1,0,0.2l-0.1,0.1l0,0.2
		l-0.2,0.5c0,0.1,0,0.1-0.1,0.1c-0.1,0-0.1,0-0.1,0.1c0,0.1,0,0.1,0.1,0.2l-0.1,0.3l-0.1,0.4l0,0.1c-0.1,0.1-0.2,0.1-0.3,0.1
		c0,0.1,0,0.1,0.1,0.1c0.1,0,0.1,0.1,0.1,0.1l-0.1,0.3l-0.2,0.6c-0.4,1.2-0.9,2.6-1.4,4.1c-0.2,0.4-0.4,0.7-0.6,1.1
		c-0.2,0.4-0.4,0.8-0.8,1.3c-0.2,0.2-0.4,0.5-0.5,0.8c-0.2,0.3-0.6,0.5-1.3,0.8c-0.2,0.2-0.3,0.3-0.5,0.4l0,0.1
		c-0.3,0.1-0.7,0.1-1.2,0c0-0.1,0-0.1,0.1,0c0.1,0,0,0-0.1,0l-0.2,0c-0.1-0.1-0.1-0.2-0.1-0.3c0-0.1,0-0.2,0-0.3
		c-0.4-0.3-0.7-0.6-0.9-0.9l-0.4-1.1c-0.1-0.3-0.2-0.6-0.2-1c0-0.4,0-0.7,0-1c-0.4,0.7-0.9,1.5-1.5,2.4c-0.6,0.9-1.4,1.6-2.4,2
		c-0.4,0.4-0.9,0.5-1.6,0.5l0.3,0l-0.1-0.1l0.2,0c0.1,0,0.2-0.1,0.4-0.2l0.1,0.1l0.3-0.2c0.1,0,0.1,0,0.1,0c0,0,0,0,0.1,0l-0.4,0
		l-0.1,0.1l0.1-0.1l-0.4,0l0.1,0.1l-0.2,0.1c0-0.1-0.1-0.1-0.3-0.1l-0.2,0l0,0.1l-0.2,0l-0.1,0l-0.1,0.1l0.1,0.1
		c0,0.1,0.1,0.1,0.3,0.1l-0.2,0c-0.2-0.1-0.5-0.3-0.7-0.4c-0.2-0.2-0.4-0.3-0.7-0.4l0-0.1l-0.1,0c-0.6-0.4-1-0.9-1.3-1.4
		s-0.4-1.1-0.5-1.6c-0.3-1.6-0.5-3-0.4-4.1c0-2.6,0.3-5.1,0.9-7.5c0.6-2.4,1.4-4.6,2.4-6.5c1-2,2.1-3.7,3.1-5.1c1-1.4,2-2.5,2.9-3.3
		c0.9-0.8,1.5-1.2,1.9-1.4c0.2-0.1,0.5-0.2,0.7-0.2c0.5,0,0.9,0.4,1.4,1.2c0.4,0.7,0.5,1.3,0.5,1.7c0,0.4-0.1,0.6-0.4,0.8
		c-0.3,0.3-0.7,0.6-1.2,1c-0.5,0.4-1,1-1.7,1.8c-0.7,0.8-1.4,1.8-2.2,3.1c-0.8,1.3-1.6,3.1-2.5,5.3c-0.3,0.7-0.6,1.6-0.9,2.6
		c-0.3,1-0.6,2-0.8,3.1c-0.2,1.1-0.4,2.2-0.5,3.4c-0.1,1.1-0.1,2.3,0,3.4c0.1,0.7,0.2,1.1,0.4,1.2c0.2,0.1,0.3,0.2,0.3,0.1
		c0.3-0.2,0.7-0.5,1.1-1c0.4-0.5,0.8-1,1.1-1.5c0.7-1,1.3-2.1,1.9-3.1c0.6-1,1.1-2,1.6-2.9l0-0.1c0.1-0.4,0.1-0.7,0.2-1.1
		c0.1-0.4,0.1-0.7,0.2-1.1c0.4-1.7,0.8-3.3,1.3-4.9c0.5-1.5,0.9-2.9,1.3-4.1c0.4-1.2,0.8-2.2,1.1-2.9c0.3-0.8,0.6-1.2,0.8-1.4
		c0.1-0.2,0.2-0.3,0.5-0.4c0.2-0.1,0.4-0.1,0.6,0c0.2,0,0.6,0.2,1.1,0.5c1.2,0.9,1.6,1.5,1.4,1.9c-0.1,0.3-0.3,0.7-0.4,1.1
		c-0.2,0.5-0.4,1.1-0.7,1.8c-0.3,0.8-0.6,1.7-1,2.8c-0.4,1.1-0.8,2.6-1.3,4.3c-0.3,1.3-0.7,2.8-1.3,4.5c-0.5,1.7-0.9,3.5-1.3,5.3
		c0,0.2,0,0.5-0.1,0.7c0,0.2-0.1,0.4-0.1,0.7c0.5-0.7,1-1.5,1.4-2.3c0.4-0.8,0.8-1.5,1.2-2.2l0-0.1l0.2-0.3l0.1-0.3l0-0.1l0.2-0.4
		c0-0.1,0-0.1,0-0.1c0,0,0-0.1,0-0.1l0.1-0.1l0.1-0.2l0.1,0l0.1-0.3l-0.1,0c0.1-0.2,0.3-0.5,0.4-0.7c0.1-0.2,0.3-0.5,0.4-0.6l0,0.1
		l-0.1,0l0,0.1l0,0.1l0.2-0.1c0.1-0.1,0.1-0.1,0-0.1c0,0,0-0.1,0-0.1l-0.1-0.1l0.1-0.1c0.1-0.1,0.1-0.2,0.1-0.2c0,0,0,0,0,0l0.4-0.4
		l0-0.2l0.2-0.2l0.1-0.3c0.1-0.1,0.2-0.2,0.3-0.4C246,40.5,246,40.4,246.1,40.4L246.1,40.4L246.1,40.4z"/>
</g>
<g id="XMLID_2_">
	<path id="XMLID_3_" class="st0" d="M120.8,32.8c0.7,0.2,1,0.5,1,0.9c0,0.3-0.1,0.7-0.2,1.2c-0.1,0.5-0.3,1.1-0.5,1.9
		c-0.2,0.8-0.5,1.8-0.9,2.9c-0.4,1.2-0.8,2.6-1.3,4.3c-0.6,2-1.5,4.2-2.6,6.7c0,0.1-0.1,0.2-0.1,0.4c-0.1,0.2-0.1,0.4-0.3,0.6
		s-0.3,0.4-0.5,0.6c-0.2,0.2-0.5,0.3-0.8,0.3l-0.2,0c0,0.1,0,0.1-0.1,0.1l-0.1-0.1c-0.1,0-0.1,0-0.2,0c-0.1,0-0.1,0-0.2,0
		c-0.3,0-0.5-0.1-0.5-0.3c0-0.1,0-0.2,0.1-0.3l0.1,0c0-0.3,0.1-0.5,0.2-0.7c0-0.2,0.1-0.3,0.1-0.5c0-0.1,0.1-0.2,0.1-0.3
		c0,0,0.1-0.1,0.1-0.2c0.1-0.8,0.2-1.5,0.3-2.3c0-0.8,0.1-1.6,0.1-2.4c-0.1-0.3-0.1-0.7-0.1-1c0-0.3,0-0.7-0.1-1l0.1-0.2
		c0-0.1,0-0.2-0.1-0.2l0-0.2c0,0,0,0,0-0.1c0-0.1,0-0.1,0-0.2l-0.1-0.4l0-0.2l-0.1-0.8l0.1,0l-0.1-0.1c0-0.3-0.1-0.6-0.1-0.9
		c0-0.3,0-0.6,0-0.9l0-0.3l0-0.2c0,0,0,0,0,0c0,0,0,0,0,0l0.1-0.1l0-0.2l-0.1,0.3c-0.4,1.2-0.9,2.7-1.5,4.4
		c-0.6,1.7-1.2,3.4-1.8,5.2c-0.1,0.1-0.1,0.3-0.2,0.5c0,0.2-0.1,0.4-0.2,0.6s-0.3,0.4-0.5,0.6c-0.2,0.2-0.6,0.3-1.1,0.4l-0.3-0.1
		l-0.2,0c-0.1,0-0.2-0.3-0.3-0.7s-0.1-1-0.2-1.6c0-0.7-0.1-1.4-0.1-2.2c0-0.8,0-1.6,0-2.4c0-1.4,0.1-2.8,0.2-4
		c0.1-1.3,0.2-2.4,0.4-3.3c0.1-1,0.3-1.8,0.4-2.4c0.1-0.6,0.2-1,0.3-1.1c0-0.1,0-0.2,0.1-0.3c0.1-0.2,0.4-0.3,0.8-0.3
		c0.6,0,1,0.1,1.2,0.4c0.2,0.2,0.3,0.4,0.3,0.6c0,0.4-0.1,0.8-0.2,1.3c-0.1,0.5-0.2,1.2-0.4,2c-0.2,0.9-0.3,1.9-0.4,3.3
		c-0.1,1.3-0.2,3-0.2,4.9c0.5-1.1,1-2.1,1.4-3.2c0.4-1,0.8-2,1.2-2.8l0-0.1l0.1-0.3l0,0.1l0.1-0.1l-0.1,0c0,0,0-0.1,0-0.1
		c0,0,0,0,0-0.1l0.2-0.5l0.2-0.4c0,0,0-0.1,0.1-0.3h-0.1h0.1l0.1-0.2l0.1-0.2l-0.1,0c0.1-0.2,0.2-0.4,0.3-0.6
		c0.1-0.2,0.2-0.4,0.3-0.5l-0.1,0.1l-0.1,0.1l0.1,0.3l0-0.1l0,0.1l0.1,0.1l0.1-0.1l0.1-0.2l-0.1,0.1c0.1-0.1,0.2-0.2,0.2-0.3
		l0.1-0.2l0.2-0.4c0.1-0.3,0.3-0.5,0.4-0.5l-0.1,0l0.1-0.1c0,0,0.1-0.1,0.2-0.1c0.1,0,0.1,0.1,0.2,0.2l0.1-0.1l0.1-0.1
		c0.2,0,0.3,0.1,0.3,0.3l-0.1,0.1c-0.1,0.1-0.1,0.2-0.1,0.3l0,0.2c0,0,0,0.1,0.1,0.1c0,0,0,0.1-0.1,0.1c0,0-0.1,0.1-0.1,0.1
		c0,0,0,0.1,0,0.1c0,0,0,0.1,0,0.1c0,0,0,0.1-0.1,0.1c-0.1,0-0.1,0.1-0.1,0.1c0,0.1,0,0.1,0.1,0.2c0,0.1,0.1,0.1,0.1,0.2l-0.1,0.1
		l0,0.7c0,0,0,0.1,0,0.1c0,0,0,0,0,0.1c0,0,0,0.1,0,0.1c0,0,0,0.1,0,0.1l0,0.3l0,0.4l-0.1,0.1c0,0,0,0.1,0.1,0.1c0,0,0.1,0,0.1,0.1
		l0,0.9c0.1,0.8,0.1,1.6,0.2,2.6c0.1,0.9,0.2,1.9,0.3,3c0.7-2.3,1.3-4.3,1.7-5.9c0.4-1.6,0.8-2.9,1.1-3.9c0.3-1,0.6-1.7,0.8-2.1
		c0.2-0.4,0.5-0.6,0.8-0.6C120.5,32.7,120.6,32.8,120.8,32.8z M107.8,49.1c0,0,0,0.1,0.1,0.1L107.8,49.1z M114.1,39.9l-0.1-0.1
		l0,0.2l0,0.1L114,40L114.1,39.9L114.1,39.9z M114.1,39.9C114.1,39.9,114.1,39.9,114.1,39.9L114.1,39.9z M114.2,39.9L114.2,39.9
		C114.1,40,114.1,40,114.2,39.9L114.2,39.9z M114.1,39l0.1,0.3C114.2,39.2,114.2,39.1,114.1,39z M114.2,38.1
		C114.2,38.1,114.2,38.1,114.2,38.1c-0.1,0-0.1,0.1-0.1,0.1l0.1,0.1L114.2,38.1z M114.2,39.8L114.2,39.8
		C114.2,39.9,114.2,39.9,114.2,39.8L114.2,39.8z M114.2,38.5l0,0.1L114.2,38.5L114.2,38.5z M114.2,37.9L114.2,37.9l0-0.1L114.2,37.9
		z M114.4,37.3L114.4,37.3c0,0.1,0,0.1-0.1,0.2c-0.1,0.1-0.1,0.1,0,0.2l-0.1,0.1l0,0.8l0,0.8l0.1-0.3l0-0.5l0.1-0.8L114.4,37.3z
		 M114.5,37.2C114.5,37.2,114.5,37.1,114.5,37.2c0-0.1,0.1-0.1,0.1-0.1l0-0.1L114.5,37.2z"/>
	<path id="XMLID_16_" class="st0" d="M120.4,49.8c-0.1-0.4-0.1-0.7-0.1-0.9c0-0.3,0-0.5,0-0.8c0-1.1,0.1-2.1,0.2-3.2
		c0.2-1,0.4-2,0.6-3c0.5-2.8,1.1-4.8,1.6-6s0.9-1.9,1.2-1.9c0.2,0,0.5,0.1,0.7,0.2c0.2,0.1,0.4,0.3,0.5,0.5c0.2,0.2,0.3,0.4,0.5,0.7
		c0,0.3-0.2,0.8-0.5,1.7c-0.3,0.8-0.8,2.2-1.2,4.2c-0.1,0.5-0.3,1.1-0.5,1.7c-0.2,0.7-0.4,1.3-0.6,2.1c-0.2,0.7-0.4,1.4-0.5,2.2
		c-0.1,0.7-0.2,1.4-0.2,2c0,0.1,0,0.1,0,0.2c0,0.1,0,0.1,0,0.2c0.1-0.1,0.4-0.3,0.8-0.6c0.4-0.3,0.7-0.5,0.8-0.8l0.4-0.4l0.3-0.2
		l0.1-0.2l0.1-0.1l0.1-0.1l0.2-0.2l-0.1,0c0.2-0.2,0.4-0.4,0.6-0.7l-0.1,0.1l-0.1,0.1l0.1-0.1l0.1-0.2l0-0.1c0,0,0-0.1,0.1-0.1
		l0.1,0l-0.1,0.1l0.1-0.1l0.1-0.1l0,0.1l0.1-0.1l0,0.1l0.2-0.2c0-0.1,0.1-0.1,0.1-0.1c0,0,0.1,0,0.1-0.1c0,0,0.1-0.1,0.1-0.1h-0.1
		l0.1-0.1l0.1,0c0.1,0,0.1,0,0.2,0.1c0.1,0,0.1,0.1,0.1,0.2c0,0,0,0.1-0.1,0.1c-0.1,0.1-0.1,0.1-0.1,0.2c0,0,0,0.1,0.1,0.1
		c0,0-0.1,0-0.2,0.1l0,0.1c0-0.1,0-0.1,0,0.1s-0.1,0.2-0.2,0.4l-0.1,0.2l-0.3,0.3l-0.1,0.3l-0.2,0.3c0,0,0,0-0.1,0c0,0-0.1,0-0.1,0
		l0,0.1l-0.3,0.5c-0.1,0.2-0.3,0.4-0.4,0.7c-0.2,0.3-0.4,0.5-0.7,0.8c-0.3,0.3-0.5,0.5-0.8,0.7c-0.3,0.2-0.7,0.3-1,0.4
		c-0.3,0-0.5-0.1-0.8-0.2c-0.3-0.2-0.4-0.3-0.5-0.5L120.4,49.8z M124.1,30.9l0.1-0.3c0,0,0-0.1,0-0.1c0,0,0,0,0-0.1l0-0.1
		c0,0,0-0.1,0-0.1c0,0,0-0.1,0-0.2l0.1,0.1l0,0.1l0,0.2l-0.1,0l0.1,0.1c0,0.1,0,0.1,0.1,0.1l0.2,0.1l-0.1-0.3l-0.1,0.1l0.1-0.1
		l0.1-0.1l0-0.1c0-0.1,0-0.2,0.1-0.2l-0.1-0.1l-0.1,0c0,0,0,0.1-0.1,0.1l0,0.1l0.1-0.2l-0.1-0.2l0.1-0.6c0,0,0.1-0.1,0.1-0.1l0-0.1
		l0.1-0.1l0.1-0.3c0-0.3,0.1-0.6,0.3-0.9c0.2-0.3,0.4-0.6,0.6-0.8c0.2-0.2,0.4-0.4,0.6-0.6c0.2-0.1,0.4-0.2,0.4-0.2
		c0.3,0,0.5,0.1,0.6,0.4s0.2,0.6,0.3,1l0,0.1l0.1,0.2l-0.1-0.1l0,0.3l0.2,0.1l-0.1,0.5l0.1,0.1l-0.1-0.1l0,0.1c0,0,0.1,0,0.1,0.1
		l-0.1,0.3l0,0.2l-0.1,0.3c-0.1,0.1-0.1,0.3-0.2,0.5c-0.1,0.2-0.1,0.3-0.1,0.3l0-0.1l0-0.1l-0.1-0.2l-0.2,0.5l0.1-0.1l0,0.1v0.1
		l0,0.1l-0.1-0.1l0,0.1l0.1,0.1v-0.1l0,0.1l-0.1,0c0,0,0.1,0,0.1,0.1l-0.1-0.1l-0.1-0.1c0,0-0.1,0.1-0.1,0.1c0,0,0,0-0.1,0.1
		l0.1,0.1l0.1,0.1l-0.1-0.1c0,0,0.1,0.1,0.1,0.2l-0.2,0.2v0.1l-0.1,0.3c0,0.1-0.1,0.2-0.1,0.3c0,0.1-0.1,0.2-0.1,0.2l-0.1-0.1l0,0.1
		l-0.1,0c0,0,0.1,0,0.1,0.1c-0.1,0.1-0.1,0.1-0.1,0.2c0,0.1-0.1,0.1-0.2,0.2l-0.1,0l-0.2,0.3c-0.1,0.2-0.3,0.3-0.5,0.4l-0.1,0
		c-0.1,0.1-0.3,0.1-0.3,0.1c-0.1,0-0.3-0.1-0.4-0.2l0.1-0.1l-0.1-0.1c0,0-0.1,0-0.1,0.1c-0.1-0.2-0.1-0.3-0.2-0.3
		c-0.1,0-0.1-0.1-0.2-0.2l0.1,0l-0.1-0.1l0.1,0l-0.1-0.2l-0.1-0.1l-0.1,0.1c-0.1-0.1-0.1-0.2-0.1-0.3l-0.1-0.3c0,0,0-0.1,0-0.1
		c0,0,0-0.1,0-0.1c0-0.1,0-0.1,0-0.2c0,0,0-0.1,0-0.2l0-0.4l0.3-0.1l0.1-0.2l-0.1,0l-0.2-0.1L124.1,30.9L124.1,30.9z M124.3,31.7
		l0.1-0.1L124.3,31.7l-0.1-0.1c0.1,0,0.1,0,0.1-0.1l-0.1,0l0-0.1l-0.1-0.1l-0.1,0.1l0,0.1l0.1,0.1l-0.1,0.1l0.1,0.1
		c0,0.1,0,0.1,0.1,0.1L124.3,31.7L124.3,31.7z M124.4,32.4l0.1,0.2l0.2-0.1l-0.1-0.1l0.1,0l-0.1-0.1l-0.1,0.1L124.4,32.4z
		 M124.6,29.5l0-0.2l-0.2-0.1l0.1,0.3L124.6,29.5z M124.7,32.6l0,0.1l0.1,0.1l0-0.1L124.7,32.6z M125.7,46.1l-0.1,0.1l0.1,0.1l0-0.1
		h0.1L125.7,46.1L125.7,46.1z M126.3,32L126.3,32L126.3,32l0.1-0.1l-0.1-0.1L126.3,32L126.3,32z M126.8,31.7L126.8,31.7L126.8,31.7
		L126.8,31.7z M126.9,31.5C126.8,31.5,126.8,31.5,126.9,31.5L126.9,31.5z M127.4,29.3l0.1,0l-0.1-0.1L127.4,29.3z M127.5,29.1
		l0.1,0.1l-0.1-0.2L127.5,29.1z M127.5,28.5L127.5,28.5L127.5,28.5L127.5,28.5z M127.6,28.9C127.7,28.9,127.7,28.9,127.6,28.9
		C127.7,28.8,127.6,28.9,127.6,28.9C127.7,28.9,127.7,28.9,127.6,28.9z M127.8,28.3L127.8,28.3C127.7,28.3,127.7,28.3,127.8,28.3z"
		/>
	<path id="XMLID_32_" class="st0" d="M116,29.9c-0.1-0.1-0.2-0.1-0.3-0.2c-0.1,0-0.2-0.1-0.3-0.2l0.1,0.1l0.3-0.1l-0.1,0l0.1,0
		l-0.1-0.1l0.1,0.1l0.1,0c0.1,0,0.2,0,0.3,0.1c0.1,0.1,0.2,0.1,0.3,0.1l-0.1,0l0.1,0c0.3,0,0.6,0,0.9,0.1c0.3,0.1,0.6,0.1,0.9,0.2
		l-0.1,0c0,0,0.1,0,0.1,0c0,0,0,0,0.1,0l-0.1-0.1l0.1,0c-0.8-0.1-1.5-0.3-2.2-0.5c-0.7-0.2-1-0.5-1.1-0.8c0-0.1,0-0.2,0.1-0.3
		c0.1-0.1,0.2-0.1,0.3-0.2l0.1,0c0,0,0,0.1,0.1,0.1s0.1,0,0.1,0.1l0.1,0.1l-0.1,0c0.1,0.1,0.4,0.2,0.9,0.2c0.5,0,1.1,0.1,1.9,0.1
		c1.4,0,3.1,0,5.1-0.1c2-0.1,4.1-0.2,6.3-0.3c0.4-0.9,0.7-1.7,1-2.2c0.3-0.6,0.5-1,0.7-1.3c0.2-0.3,0.3-0.5,0.4-0.6s0.2-0.1,0.4-0.1
		c0.4,0,0.8,0.2,1.2,0.5c0.4,0.3,0.5,0.6,0.6,0.8c0,0.3-0.1,0.6-0.3,1c-0.2,0.4-0.5,1-0.8,1.7c1.1-0.1,2.1-0.1,2.8-0.1
		c0.7,0,1.5,0,2.4,0c0.6,0,1.2,0,1.9,0c0.6,0,1.2,0.1,1.7,0.2s1,0.2,1.4,0.3c0.4,0.1,0.7,0.3,0.9,0.5l-0.1,0.1l0.2-0.1
		c0,0,0.1,0.1,0.1,0.2c0.1,0.2,0,0.3-0.3,0.4c-0.2-0.1-0.4-0.1-0.6-0.2c-0.3,0-0.6-0.1-0.9-0.1c-0.6,0-1.4,0-2.3,0.1l0.3-0.1
		l-0.1,0.1l0.1,0l0.1,0l0.1-0.1v0.1l0.8,0l0.1,0.1l0.2-0.1l0.5,0c0.3,0,0.6,0.1,0.9,0.1c0.3,0.1,0.6,0.1,0.7,0.1l-0.2,0l0.1,0
		l-0.1,0l-0.2,0l-0.1,0.1l-0.3,0.1l0.1-0.1l-0.2,0c0,0-0.1,0.1-0.2,0.1l0-0.1c-0.1,0-0.1,0-0.1,0c0,0,0,0-0.1,0l-0.5-0.1l-0.1-0.2
		l-0.3,0.2l-0.1,0.1l-0.4,0l0.1-0.1l0.1,0l0.1-0.1l0.1-0.2l-0.3,0.1l-0.2,0.1l-0.1,0.1c-0.1,0-0.2,0-0.2,0.1l-0.2,0l0.1-0.1l0.1-0.2
		l-0.3,0l-0.3-0.1l0.1,0.3l0.1,0.1l0.1,0l-0.2,0l0.1-0.1l-0.1,0.1l-0.1-0.1l0.1,0.1c0,0-0.1,0-0.3,0c-0.2,0.1-0.3,0.1-0.4,0.1
		c-0.1,0-0.1,0-0.2,0c-0.1,0-0.1,0-0.1,0l-0.1-0.1l0.1,0.1c0,0,0,0.1,0.1,0.1l0.1,0l0.1,0l-0.1-0.1l0.2-0.1l-0.1-0.1l-0.1-0.1
		l-0.1,0.1l-0.2,0.1l-0.1-0.1l-0.2,0l0.2-0.1l0.1,0l0.1-0.1c-0.1,0-0.1,0-0.2,0c-0.1,0-0.1,0-0.2,0l-0.1,0.2c0,0,0,0.1,0.1,0.1
		l0.1,0.1l-0.5,0c-0.2,0.1-0.4,0.1-0.5,0.1c-0.2,0-0.4,0-0.5,0.1l-0.1-0.1c-0.2,0.1-0.4,0.1-0.6,0.1c-0.2,0-0.4,0-0.6,0V30
		c-0.7,0.1-1.4,0.3-2.1,0.4c-0.7,0.1-1.4,0.3-2,0.4c-0.2,0.4-0.5,1.3-1,2.5c-0.5,1.2-0.9,2.7-1.4,4.3c-0.5,1.6-0.9,3.3-1.2,5.1
		c-0.4,1.8-0.5,3.4-0.6,5c0,0.4,0,0.7,0.2,1.1c0.1,0.4,0.2,0.7,0.3,1.1l0,0.1l-0.1-0.1v0.1c0,0,0.1,0.1,0.2,0.1
		c0.6,0,1.2-0.3,1.8-0.9s1-1.3,1.3-2c0-0.1,0-0.2,0.1-0.3l0-0.1l0.1-0.1c0,0-0.1,0-0.1,0c0,0,0,0-0.1,0l0.2-0.2l0-0.3l0.1-0.1
		l0.1-0.1h-0.1c0-0.1,0.1-0.2,0.1-0.3c0-0.1,0.1-0.2,0.1-0.2l0.1,0.1l-0.1,0.1l0.1,0.2l0.1-0.1l0.1-0.2l0-0.1l0.1-0.1l0.1-0.2
		l-0.1-0.1l0.1-0.2c0,0,0-0.1,0.1-0.2l0.1-0.1l-0.1-0.1h0.1c0.2,0,0.4,0,0.4,0.1l-0.1,0.2c0,0,0,0.1,0.1,0.1L133,45
		c0,0,0,0.1-0.1,0.1l-0.1,0l0.1,0.1c0,0,0,0.1-0.1,0.1c0,0-0.1,0-0.1,0.1c0,0,0,0.1,0,0.1c0,0,0,0,0,0.1v0.1l-0.1,0.3
		c0,0.1,0,0.1,0,0.1c0,0,0,0,0,0l0.1,0.1l-0.1,0.1l0,0.2c-0.1,0-0.1,0-0.1,0.1l0.1,0.1l0,0.4c-0.1,0.3-0.2,0.7-0.3,1.4
		c-0.1,0.6-0.4,1.3-0.7,1.9c-0.3,0.6-0.8,1.2-1.3,1.7c-0.5,0.5-1.2,0.7-2,0.7c-0.6,0-1.2-0.2-1.6-0.5c-0.4-0.3-0.8-0.7-1.1-1.2
		c-0.3-0.5-0.4-1-0.5-1.7c-0.1-0.6-0.1-1.3-0.1-1.9c0.1-1.8,0.3-3.5,0.6-5.1c0.3-1.6,0.6-3.1,1-4.5c0.4-1.4,0.7-2.6,1.1-3.7
		c0.4-1.1,0.7-2,1-2.7c-0.1,0-0.4,0.1-0.8,0c-0.8,0-1.8-0.1-3.1-0.2c-1.2-0.2-2.4-0.2-3.6-0.2l-0.2-0.1l-0.1,0l-0.1,0l-0.1-0.1
		c0,0-0.1,0.1-0.2,0.1l-0.2,0l-0.2,0l-0.6-0.1l-0.1,0.1c-0.2,0-0.4,0-0.7,0c-0.2,0-0.5,0-0.7-0.1l-0.1,0l-0.3,0l0.1-0.1l-0.1,0
		l0,0.1l-0.1,0l-0.4-0.2l-0.2,0L116,29.9z M116.8,29.9L116.8,29.9L116.8,29.9L116.8,29.9z M117.6,30.1L117.6,30.1L117.6,30.1
		L117.6,30.1z M118.5,30.3L118.5,30.3l-0.2,0l-0.1,0.1l0.2,0L118.5,30.3L118.5,30.3z M119.5,30.3C119.5,30.3,119.5,30.3,119.5,30.3
		L119.5,30.3z M137.9,29.7l0.1,0l0.1-0.1C138.1,29.7,138,29.7,137.9,29.7L137.9,29.7z M140.9,29.6L140.9,29.6L140.9,29.6L140.9,29.6
		z M140.9,29.4L140.9,29.4l0.1,0L140.9,29.4L140.9,29.4z"/>
	<path id="XMLID_41_" class="st0" d="M143.4,33.5c0,0.1,0.1,0.2,0.1,0.4c0,0.2,0,0.4-0.1,0.7c-0.1,0.2-0.1,0.5-0.2,0.7
		c-0.8,2.7-1.6,5-2.1,6.8c-0.6,1.9-0.9,3.6-0.9,5.1c0,0.7,0,1.2,0.1,1.6c0.1,0.4,0.1,0.7,0.2,0.9c0.1,0.2,0.1,0.3,0.2,0.4
		c0.1,0.1,0.1,0.2,0.1,0.2c0,0.1-0.1,0.3-0.2,0.6c-0.1,0.3-0.4,0.6-0.8,0.9c0,0,0.1,0,0.1,0.1l-0.1-0.1c-0.1,0-0.1,0-0.2,0.1
		c-0.1,0-0.1,0.1-0.2,0.1c-0.4,0-0.8-0.4-1.2-1.3s-0.6-2-0.6-3.3c0-0.8,0.1-1.7,0.3-2.7s0.5-2.2,0.9-3.6c0.2-0.8,0.5-1.6,0.9-2.5
		c0.4-0.8,0.7-1.8,1.1-2.9c-0.8,0.7-1.6,1.5-2.2,2.3c-0.6,0.8-1.2,1.6-1.8,2.5l-0.1,0.2l-0.1,0.1l0,0.1l-0.2,0.2l0-0.1l0,0.1
		c0,0,0,0.1,0,0.1c0,0,0,0,0,0.1l-0.1,0.3l-0.1,0.1l-0.1,0.1h0.1l-0.1,0.1l-0.3,0.6l-0.1,0.1c-0.1,0.2-0.2,0.5-0.4,0.7
		c-0.1,0.2-0.2,0.4-0.3,0.7l-0.1,0.1l-0.1,0.3l-0.1,0.1v0.1l0,0.1l-0.1,0.1l-0.2,0.5l-0.1,0.4l-0.1,0.2l0.1,0.1h-0.1l-0.2,0.4
		c0,0.2-0.1,0.4-0.1,0.6c-0.1,0.2-0.1,0.4-0.1,0.6l0-0.1l-0.1-0.3v0.1l0-0.1l-0.1,0.1l0-0.1c0,0.2,0,0.3,0,0.3c0,0,0,0.1,0,0.2
		c-0.2,1-0.3,1.9-0.3,2.5c0,0.6-0.1,1.1-0.1,1.5c-0.1,0.3-0.2,0.6-0.3,0.7c-0.2,0.1-0.5,0.2-0.9,0.2c-0.1,0-0.1,0.1-0.1,0.2
		c0,0.1,0,0.1-0.1,0.2l0-0.1l0.1-0.2l-0.1-0.1c0,0-0.1-0.1-0.2-0.1c-0.6,0-0.9-0.4-0.9-1c0-0.4,0-0.9,0.1-1.5c0-0.6,0.1-1.4,0.3-2.3
		c0.1-0.9,0.3-2.1,0.6-3.5c0.3-1.4,0.6-3,1.1-5c0.1-0.2,0.1-0.4,0.1-0.5c0-0.2,0.1-0.4,0.1-0.5l-0.1-0.1c0.5-2,1.1-3.9,1.6-5.8
		c0.6-1.9,1.1-3.5,1.5-5c0.5-1.5,0.9-2.7,1.2-3.6c0.3-1,0.6-1.6,0.6-1.8c0-0.1,0.1-0.2,0.2-0.3c0.1-0.1,0.2-0.1,0.2-0.2
		c0.1-0.1,0.2-0.1,0.4-0.1c0.5,0,0.9,0.1,1.2,0.4c0.2,0.3,0.4,0.5,0.4,0.7c0,0,0,0.1,0,0.1c0,0,0,0.1,0,0.2
		c-0.1,0.3-0.3,0.9-0.6,1.8c-0.3,0.9-0.7,2-1.1,3.3c-0.4,1.3-0.9,2.8-1.4,4.4c-0.5,1.6-1,3.2-1.4,4.9c0,0-0.1,0.1-0.1,0.2
		c-0.2,0.6-0.3,1.3-0.5,1.9c-0.1,0.6-0.3,1.2-0.4,1.8c0.3-0.6,0.8-1.3,1.3-2.2c0.5-0.9,1.1-1.7,1.8-2.5c0.7-0.8,1.3-1.5,2-2.1
		c0.7-0.6,1.3-0.9,1.8-0.9c0.2,0,0.5,0.1,0.7,0.2C142.7,32.8,143,33.1,143.4,33.5z M133.7,46.3l0-0.1
		C133.7,46.2,133.6,46.3,133.7,46.3L133.7,46.3z M134.5,43.4C134.5,43.4,134.5,43.4,134.5,43.4c0,0,0.1,0,0.1-0.1L134.5,43.4
		l0.1-0.1c0-0.1,0-0.2,0.1-0.3l-0.2,0.2l-0.3,0.7l-0.1,0.4l-0.1,0.1c0,0.3-0.1,0.5-0.1,0.7c0,0.2-0.1,0.4-0.1,0.6
		c0,0,0.1-0.1,0.1-0.2l0.1,0l0-0.1c0-0.2,0.1-0.6,0.2-1C134.2,43.9,134.4,43.6,134.5,43.4L134.5,43.4z M133.9,45.1l0-0.1L133.9,45.1
		L133.9,45.1z M134,44.8L134,44.8l0.1,0L134,44.8z M134.1,44.4L134.1,44.4L134.1,44.4L134.1,44.4z M134.3,44.1l0-0.3v0.1L134.3,44.1
		z M134.6,43.3C134.6,43.3,134.6,43.3,134.6,43.3L134.6,43.3z M134.7,43.3L134.7,43.3L134.7,43.3L134.7,43.3z M134.6,43
		c0-0.1,0.1-0.1,0.1-0.2c0,0,0-0.1,0.1-0.2l-0.1,0L134.6,43z M134.9,43.2L134.9,43.2L134.9,43.2L134.9,43.2l-0.1,0.1l0.1,0.1
		l0.1-0.1L134.9,43.2z M135.2,42.2l0.1-0.1L135.2,42.2L135.2,42.2z M135.5,41.6L135.5,41.6L135.5,41.6L135.5,41.6z M137.7,38.3
		c0,0.1-0.1,0.1-0.1,0.1c0,0,0,0.1-0.1,0.1l0.1-0.2L137.7,38.3z"/>
</g>
</svg>
